FFprobe version SVN-rUNKNOWN, Copyright (c) 2007-2008 Stefano Sabatini
  libavutil version: 49.15.0
  libavcodec version: 52.20.1
  libavformat version: 52.31.0
  built on May 22 2010 15:12:14, gcc: 4.2.1 (Apple Inc. build 5646) (dot 1)
Input #0, ogg, from '/Users/philip/Projects/ffprobe/test/testcases/source.ogv':
  Duration: 00:00:05.66, start: 0.000000, bitrate: 241 kb/s
    Stream #0.0: Video: theora, yuv420p, 320x240, PAR 1:1 DAR 4:3, 49.58 tbr, 49.58 tbn, 49.58 tbc
    Stream #0.1: Audio: vorbis, 22050 Hz, stereo, s16
[PACKET]
codec_type=audio
stream_index=1
pts=0
pts_time=0:00:00.000000 s
dts=0
dts_time=0:00:00.000000 s
size=30.000 byte
file_pkt_nb=1
stream_pkt_nb=1
duration_ts=0
duration_time=0:00:00.000000 s
flag_key=K
[/PACKET]
[PACKET]
codec_type=video
stream_index=0
pts=0
pts_time=0:00:00.000000 s
dts=0
dts_time=0:00:00.000000 s
size=993.000 byte
file_pkt_nb=2
stream_pkt_nb=1
duration_ts=1
duration_time=0:00:00.020168 s
flag_key=K
[/PACKET]
[PACKET]
codec_type=video
stream_index=0
pts=1
pts_time=0:00:00.020168 s
dts=1
dts_time=0:00:00.020168 s
size=20.000 byte
file_pkt_nb=3
stream_pkt_nb=2
duration_ts=1
duration_time=0:00:00.020168 s
flag_key=K
[/PACKET]
[PACKET]
codec_type=audio
stream_index=1
pts=0
pts_time=0:00:00.000000 s
dts=0
dts_time=0:00:00.000000 s
size=30.000 byte
file_pkt_nb=4
stream_pkt_nb=2
duration_ts=0
duration_time=0:00:00.000000 s
flag_key=K
[/PACKET]
[PACKET]
codec_type=video
stream_index=0
pts=2
pts_time=0:00:00.040336 s
dts=2
dts_time=0:00:00.040336 s
size=55.000 byte
file_pkt_nb=5
stream_pkt_nb=3
duration_ts=1
duration_time=0:00:00.020168 s
flag_key=K
[/PACKET]
[PACKET]
codec_type=video
stream_index=0
pts=3
pts_time=0:00:00.060504 s
dts=3
dts_time=0:00:00.060504 s
size=820.000 byte
file_pkt_nb=6
stream_pkt_nb=4
duration_ts=1
duration_time=0:00:00.020168 s
flag_key=K
[/PACKET]
[PACKET]
codec_type=audio
stream_index=1
pts=1024
pts_time=0:00:00.046440 s
dts=1024
dts_time=0:00:00.046440 s
size=30.000 byte
file_pkt_nb=7
stream_pkt_nb=3
duration_ts=0
duration_time=0:00:00.000000 s
flag_key=K
[/PACKET]
[PACKET]
codec_type=video
stream_index=0
pts=4
pts_time=0:00:00.080672 s
dts=4
dts_time=0:00:00.080672 s
size=272.000 byte
file_pkt_nb=8
stream_pkt_nb=5
duration_ts=1
duration_time=0:00:00.020168 s
flag_key=K
[/PACKET]
[PACKET]
codec_type=video
stream_index=0
pts=5
pts_time=0:00:00.100840 s
dts=5
dts_time=0:00:00.100840 s
size=530.000 byte
file_pkt_nb=9
stream_pkt_nb=6
duration_ts=1
duration_time=0:00:00.020168 s
flag_key=K
[/PACKET]
[PACKET]
codec_type=audio
stream_index=1
pts=2048
pts_time=0:00:00.092880 s
dts=2048
dts_time=0:00:00.092880 s
size=106.000 byte
file_pkt_nb=10
stream_pkt_nb=4
duration_ts=0
duration_time=0:00:00.000000 s
flag_key=K
[/PACKET]
[PACKET]
codec_type=video
stream_index=0
pts=6
pts_time=0:00:00.121008 s
dts=6
dts_time=0:00:00.121008 s
size=707.000 byte
file_pkt_nb=11
stream_pkt_nb=7
duration_ts=1
duration_time=0:00:00.020168 s
flag_key=K
[/PACKET]
[PACKET]
codec_type=video
stream_index=0
pts=7
pts_time=0:00:00.141176 s
dts=7
dts_time=0:00:00.141176 s
size=1.048 Kibyte
file_pkt_nb=12
stream_pkt_nb=8
duration_ts=1
duration_time=0:00:00.020168 s
flag_key=K
[/PACKET]
[PACKET]
codec_type=video
stream_index=0
pts=8
pts_time=0:00:00.161345 s
dts=8
dts_time=0:00:00.161345 s
size=27.000 byte
file_pkt_nb=13
stream_pkt_nb=9
duration_ts=1
duration_time=0:00:00.020168 s
flag_key=K
[/PACKET]
[PACKET]
codec_type=audio
stream_index=1
pts=3072
pts_time=0:00:00.139320 s
dts=3072
dts_time=0:00:00.139320 s
size=108.000 byte
file_pkt_nb=14
stream_pkt_nb=5
duration_ts=0
duration_time=0:00:00.000000 s
flag_key=K
[/PACKET]
[PACKET]
codec_type=video
stream_index=0
pts=9
pts_time=0:00:00.181513 s
dts=9
dts_time=0:00:00.181513 s
size=589.000 byte
file_pkt_nb=15
stream_pkt_nb=10
duration_ts=1
duration_time=0:00:00.020168 s
flag_key=K
[/PACKET]
[PACKET]
codec_type=video
stream_index=0
pts=10
pts_time=0:00:00.201681 s
dts=10
dts_time=0:00:00.201681 s
size=177.000 byte
file_pkt_nb=16
stream_pkt_nb=11
duration_ts=1
duration_time=0:00:00.020168 s
flag_key=K
[/PACKET]
[PACKET]
codec_type=audio
stream_index=1
pts=4096
pts_time=0:00:00.185760 s
dts=4096
dts_time=0:00:00.185760 s
size=106.000 byte
file_pkt_nb=17
stream_pkt_nb=6
duration_ts=0
duration_time=0:00:00.000000 s
flag_key=K
[/PACKET]
[PACKET]
codec_type=video
stream_index=0
pts=11
pts_time=0:00:00.221849 s
dts=11
dts_time=0:00:00.221849 s
size=4.408 Kibyte
file_pkt_nb=18
stream_pkt_nb=12
duration_ts=1
duration_time=0:00:00.020168 s
flag_key=K
[/PACKET]
[PACKET]
codec_type=video
stream_index=0
pts=12
pts_time=0:00:00.242017 s
dts=12
dts_time=0:00:00.242017 s
size=1017.000 byte
file_pkt_nb=19
stream_pkt_nb=13
duration_ts=1
duration_time=0:00:00.020168 s
flag_key=K
[/PACKET]
[PACKET]
codec_type=audio
stream_index=1
pts=5120
pts_time=0:00:00.232200 s
dts=5120
dts_time=0:00:00.232200 s
size=118.000 byte
file_pkt_nb=20
stream_pkt_nb=7
duration_ts=0
duration_time=0:00:00.000000 s
flag_key=K
[/PACKET]
[PACKET]
codec_type=video
stream_index=0
pts=13
pts_time=0:00:00.262185 s
dts=13
dts_time=0:00:00.262185 s
size=22.000 byte
file_pkt_nb=21
stream_pkt_nb=14
duration_ts=1
duration_time=0:00:00.020168 s
flag_key=K
[/PACKET]
[PACKET]
codec_type=video
stream_index=0
pts=14
pts_time=0:00:00.282353 s
dts=14
dts_time=0:00:00.282353 s
size=211.000 byte
file_pkt_nb=22
stream_pkt_nb=15
duration_ts=1
duration_time=0:00:00.020168 s
flag_key=K
[/PACKET]
[PACKET]
codec_type=video
stream_index=0
pts=15
pts_time=0:00:00.302521 s
dts=15
dts_time=0:00:00.302521 s
size=172.000 byte
file_pkt_nb=23
stream_pkt_nb=16
duration_ts=1
duration_time=0:00:00.020168 s
flag_key=K
[/PACKET]
[PACKET]
codec_type=audio
stream_index=1
pts=6144
pts_time=0:00:00.278639 s
dts=6144
dts_time=0:00:00.278639 s
size=102.000 byte
file_pkt_nb=24
stream_pkt_nb=8
duration_ts=0
duration_time=0:00:00.000000 s
flag_key=K
[/PACKET]
[PACKET]
codec_type=video
stream_index=0
pts=16
pts_time=0:00:00.322689 s
dts=16
dts_time=0:00:00.322689 s
size=877.000 byte
file_pkt_nb=25
stream_pkt_nb=17
duration_ts=1
duration_time=0:00:00.020168 s
flag_key=K
[/PACKET]
[PACKET]
codec_type=video
stream_index=0
pts=17
pts_time=0:00:00.342857 s
dts=17
dts_time=0:00:00.342857 s
size=19.000 byte
file_pkt_nb=26
stream_pkt_nb=18
duration_ts=1
duration_time=0:00:00.020168 s
flag_key=K
[/PACKET]
[PACKET]
codec_type=audio
stream_index=1
pts=7168
pts_time=0:00:00.325079 s
dts=7168
dts_time=0:00:00.325079 s
size=108.000 byte
file_pkt_nb=27
stream_pkt_nb=9
duration_ts=0
duration_time=0:00:00.000000 s
flag_key=K
[/PACKET]
[PACKET]
codec_type=video
stream_index=0
pts=18
pts_time=0:00:00.363025 s
dts=18
dts_time=0:00:00.363025 s
size=665.000 byte
file_pkt_nb=28
stream_pkt_nb=19
duration_ts=1
duration_time=0:00:00.020168 s
flag_key=K
[/PACKET]
[PACKET]
codec_type=video
stream_index=0
pts=19
pts_time=0:00:00.383193 s
dts=19
dts_time=0:00:00.383193 s
size=117.000 byte
file_pkt_nb=29
stream_pkt_nb=20
duration_ts=1
duration_time=0:00:00.020168 s
flag_key=K
[/PACKET]
[PACKET]
codec_type=audio
stream_index=1
pts=8192
pts_time=0:00:00.371519 s
dts=8192
dts_time=0:00:00.371519 s
size=115.000 byte
file_pkt_nb=30
stream_pkt_nb=10
duration_ts=0
duration_time=0:00:00.000000 s
flag_key=K
[/PACKET]
[PACKET]
codec_type=video
stream_index=0
pts=20
pts_time=0:00:00.403361 s
dts=20
dts_time=0:00:00.403361 s
size=272.000 byte
file_pkt_nb=31
stream_pkt_nb=21
duration_ts=1
duration_time=0:00:00.020168 s
flag_key=K
[/PACKET]
[PACKET]
codec_type=video
stream_index=0
pts=21
pts_time=0:00:00.423529 s
dts=21
dts_time=0:00:00.423529 s
size=15.000 byte
file_pkt_nb=32
stream_pkt_nb=22
duration_ts=1
duration_time=0:00:00.020168 s
flag_key=K
[/PACKET]
[PACKET]
codec_type=video
stream_index=0
pts=22
pts_time=0:00:00.443697 s
dts=22
dts_time=0:00:00.443697 s
size=3.279 Kibyte
file_pkt_nb=33
stream_pkt_nb=23
duration_ts=1
duration_time=0:00:00.020168 s
flag_key=K
[/PACKET]
[PACKET]
codec_type=audio
stream_index=1
pts=9216
pts_time=0:00:00.417959 s
dts=9216
dts_time=0:00:00.417959 s
size=132.000 byte
file_pkt_nb=34
stream_pkt_nb=11
duration_ts=0
duration_time=0:00:00.000000 s
flag_key=K
[/PACKET]
[PACKET]
codec_type=video
stream_index=0
pts=23
pts_time=0:00:00.463866 s
dts=23
dts_time=0:00:00.463866 s
size=747.000 byte
file_pkt_nb=35
stream_pkt_nb=24
duration_ts=1
duration_time=0:00:00.020168 s
flag_key=K
[/PACKET]
[PACKET]
codec_type=video
stream_index=0
pts=24
pts_time=0:00:00.484034 s
dts=24
dts_time=0:00:00.484034 s
size=440.000 byte
file_pkt_nb=36
stream_pkt_nb=25
duration_ts=1
duration_time=0:00:00.020168 s
flag_key=K
[/PACKET]
[PACKET]
codec_type=audio
stream_index=1
pts=10240
pts_time=0:00:00.464399 s
dts=10240
dts_time=0:00:00.464399 s
size=136.000 byte
file_pkt_nb=37
stream_pkt_nb=12
duration_ts=0
duration_time=0:00:00.000000 s
flag_key=K
[/PACKET]
[PACKET]
codec_type=video
stream_index=0
pts=25
pts_time=0:00:00.504202 s
dts=25
dts_time=0:00:00.504202 s
size=22.000 byte
file_pkt_nb=38
stream_pkt_nb=26
duration_ts=1
duration_time=0:00:00.020168 s
flag_key=K
[/PACKET]
[PACKET]
codec_type=video
stream_index=0
pts=26
pts_time=0:00:00.524370 s
dts=26
dts_time=0:00:00.524370 s
size=630.000 byte
file_pkt_nb=39
stream_pkt_nb=27
duration_ts=1
duration_time=0:00:00.020168 s
flag_key=K
[/PACKET]
[PACKET]
codec_type=audio
stream_index=1
pts=11264
pts_time=0:00:00.510839 s
dts=11264
dts_time=0:00:00.510839 s
size=133.000 byte
file_pkt_nb=40
stream_pkt_nb=13
duration_ts=0
duration_time=0:00:00.000000 s
flag_key=K
[/PACKET]
[PACKET]
codec_type=video
stream_index=0
pts=27
pts_time=0:00:00.544538 s
dts=27
dts_time=0:00:00.544538 s
size=29.000 byte
file_pkt_nb=41
stream_pkt_nb=28
duration_ts=1
duration_time=0:00:00.020168 s
flag_key=K
[/PACKET]
[PACKET]
codec_type=video
stream_index=0
pts=28
pts_time=0:00:00.564706 s
dts=28
dts_time=0:00:00.564706 s
size=63.000 byte
file_pkt_nb=42
stream_pkt_nb=29
duration_ts=1
duration_time=0:00:00.020168 s
flag_key=K
[/PACKET]
[PACKET]
codec_type=audio
stream_index=1
pts=12288
pts_time=0:00:00.557279 s
dts=12288
dts_time=0:00:00.557279 s
size=146.000 byte
file_pkt_nb=43
stream_pkt_nb=14
duration_ts=0
duration_time=0:00:00.000000 s
flag_key=K
[/PACKET]
[PACKET]
codec_type=video
stream_index=0
pts=29
pts_time=0:00:00.584874 s
dts=29
dts_time=0:00:00.584874 s
size=761.000 byte
file_pkt_nb=44
stream_pkt_nb=30
duration_ts=1
duration_time=0:00:00.020168 s
flag_key=K
[/PACKET]
[PACKET]
codec_type=video
stream_index=0
pts=30
pts_time=0:00:00.605042 s
dts=30
dts_time=0:00:00.605042 s
size=79.000 byte
file_pkt_nb=45
stream_pkt_nb=31
duration_ts=1
duration_time=0:00:00.020168 s
flag_key=K
[/PACKET]
[PACKET]
codec_type=video
stream_index=0
pts=31
pts_time=0:00:00.625210 s
dts=31
dts_time=0:00:00.625210 s
size=2.652 Kibyte
file_pkt_nb=46
stream_pkt_nb=32
duration_ts=1
duration_time=0:00:00.020168 s
flag_key=K
[/PACKET]
[PACKET]
codec_type=audio
stream_index=1
pts=13312
pts_time=0:00:00.603719 s
dts=13312
dts_time=0:00:00.603719 s
size=145.000 byte
file_pkt_nb=47
stream_pkt_nb=15
duration_ts=0
duration_time=0:00:00.000000 s
flag_key=K
[/PACKET]
[PACKET]
codec_type=video
stream_index=0
pts=32
pts_time=0:00:00.645378 s
dts=32
dts_time=0:00:00.645378 s
size=16.000 byte
file_pkt_nb=48
stream_pkt_nb=33
duration_ts=1
duration_time=0:00:00.020168 s
flag_key=K
[/PACKET]
[PACKET]
codec_type=video
stream_index=0
pts=33
pts_time=0:00:00.665546 s
dts=33
dts_time=0:00:00.665546 s
size=324.000 byte
file_pkt_nb=49
stream_pkt_nb=34
duration_ts=1
duration_time=0:00:00.020168 s
flag_key=K
[/PACKET]
[PACKET]
codec_type=audio
stream_index=1
pts=14336
pts_time=0:00:00.650159 s
dts=14336
dts_time=0:00:00.650159 s
size=136.000 byte
file_pkt_nb=50
stream_pkt_nb=16
duration_ts=0
duration_time=0:00:00.000000 s
flag_key=K
[/PACKET]
[PACKET]
codec_type=video
stream_index=0
pts=34
pts_time=0:00:00.685714 s
dts=34
dts_time=0:00:00.685714 s
size=299.000 byte
file_pkt_nb=51
stream_pkt_nb=35
duration_ts=1
duration_time=0:00:00.020168 s
flag_key=K
[/PACKET]
[PACKET]
codec_type=video
stream_index=0
pts=35
pts_time=0:00:00.705882 s
dts=35
dts_time=0:00:00.705882 s
size=1.401 Kibyte
file_pkt_nb=52
stream_pkt_nb=36
duration_ts=1
duration_time=0:00:00.020168 s
flag_key=K
[/PACKET]
[PACKET]
codec_type=audio
stream_index=1
pts=15360
pts_time=0:00:00.696599 s
dts=15360
dts_time=0:00:00.696599 s
size=138.000 byte
file_pkt_nb=53
stream_pkt_nb=17
duration_ts=0
duration_time=0:00:00.000000 s
flag_key=K
[/PACKET]
[PACKET]
codec_type=video
stream_index=0
pts=36
pts_time=0:00:00.726050 s
dts=36
dts_time=0:00:00.726050 s
size=31.000 byte
file_pkt_nb=54
stream_pkt_nb=37
duration_ts=1
duration_time=0:00:00.020168 s
flag_key=K
[/PACKET]
[PACKET]
codec_type=video
stream_index=0
pts=37
pts_time=0:00:00.746218 s
dts=37
dts_time=0:00:00.746218 s
size=183.000 byte
file_pkt_nb=55
stream_pkt_nb=38
duration_ts=1
duration_time=0:00:00.020168 s
flag_key=K
[/PACKET]
[PACKET]
codec_type=video
stream_index=0
pts=38
pts_time=0:00:00.766387 s
dts=38
dts_time=0:00:00.766387 s
size=17.000 byte
file_pkt_nb=56
stream_pkt_nb=39
duration_ts=1
duration_time=0:00:00.020168 s
flag_key=K
[/PACKET]
[PACKET]
codec_type=audio
stream_index=1
pts=16384
pts_time=0:00:00.743039 s
dts=16384
dts_time=0:00:00.743039 s
size=117.000 byte
file_pkt_nb=57
stream_pkt_nb=18
duration_ts=0
duration_time=0:00:00.000000 s
flag_key=K
[/PACKET]
[PACKET]
codec_type=video
stream_index=0
pts=39
pts_time=0:00:00.786555 s
dts=39
dts_time=0:00:00.786555 s
size=372.000 byte
file_pkt_nb=58
stream_pkt_nb=40
duration_ts=1
duration_time=0:00:00.020168 s
flag_key=K
[/PACKET]
[PACKET]
codec_type=video
stream_index=0
pts=40
pts_time=0:00:00.806723 s
dts=40
dts_time=0:00:00.806723 s
size=90.000 byte
file_pkt_nb=59
stream_pkt_nb=41
duration_ts=1
duration_time=0:00:00.020168 s
flag_key=K
[/PACKET]
[PACKET]
codec_type=audio
stream_index=1
pts=17408
pts_time=0:00:00.789478 s
dts=17408
dts_time=0:00:00.789478 s
size=124.000 byte
file_pkt_nb=60
stream_pkt_nb=19
duration_ts=0
duration_time=0:00:00.000000 s
flag_key=K
[/PACKET]
[PACKET]
codec_type=video
stream_index=0
pts=41
pts_time=0:00:00.826891 s
dts=41
dts_time=0:00:00.826891 s
size=682.000 byte
file_pkt_nb=61
stream_pkt_nb=42
duration_ts=1
duration_time=0:00:00.020168 s
flag_key=K
[/PACKET]
[PACKET]
codec_type=video
stream_index=0
pts=42
pts_time=0:00:00.847059 s
dts=42
dts_time=0:00:00.847059 s
size=26.000 byte
file_pkt_nb=62
stream_pkt_nb=43
duration_ts=1
duration_time=0:00:00.020168 s
flag_key=K
[/PACKET]
[PACKET]
codec_type=audio
stream_index=1
pts=18432
pts_time=0:00:00.835918 s
dts=18432
dts_time=0:00:00.835918 s
size=111.000 byte
file_pkt_nb=63
stream_pkt_nb=20
duration_ts=0
duration_time=0:00:00.000000 s
flag_key=K
[/PACKET]
[PACKET]
codec_type=video
stream_index=0
pts=43
pts_time=0:00:00.867227 s
dts=43
dts_time=0:00:00.867227 s
size=2.804 Kibyte
file_pkt_nb=64
stream_pkt_nb=44
duration_ts=1
duration_time=0:00:00.020168 s
flag_key=K
[/PACKET]
[PACKET]
codec_type=video
stream_index=0
pts=44
pts_time=0:00:00.887395 s
dts=44
dts_time=0:00:00.887395 s
size=505.000 byte
file_pkt_nb=65
stream_pkt_nb=45
duration_ts=1
duration_time=0:00:00.020168 s
flag_key=K
[/PACKET]
[PACKET]
codec_type=video
stream_index=0
pts=45
pts_time=0:00:00.907563 s
dts=45
dts_time=0:00:00.907563 s
size=35.000 byte
file_pkt_nb=66
stream_pkt_nb=46
duration_ts=1
duration_time=0:00:00.020168 s
flag_key=K
[/PACKET]
[PACKET]
codec_type=audio
stream_index=1
pts=19456
pts_time=0:00:00.882358 s
dts=19456
dts_time=0:00:00.882358 s
size=108.000 byte
file_pkt_nb=67
stream_pkt_nb=21
duration_ts=0
duration_time=0:00:00.000000 s
flag_key=K
[/PACKET]
[PACKET]
codec_type=video
stream_index=0
pts=46
pts_time=0:00:00.927731 s
dts=46
dts_time=0:00:00.927731 s
size=1.448 Kibyte
file_pkt_nb=68
stream_pkt_nb=47
duration_ts=1
duration_time=0:00:00.020168 s
flag_key=K
[/PACKET]
[PACKET]
codec_type=video
stream_index=0
pts=47
pts_time=0:00:00.947899 s
dts=47
dts_time=0:00:00.947899 s
size=15.000 byte
file_pkt_nb=69
stream_pkt_nb=48
duration_ts=1
duration_time=0:00:00.020168 s
flag_key=K
[/PACKET]
[PACKET]
codec_type=audio
stream_index=1
pts=20480
pts_time=0:00:00.928798 s
dts=20480
dts_time=0:00:00.928798 s
size=104.000 byte
file_pkt_nb=70
stream_pkt_nb=22
duration_ts=0
duration_time=0:00:00.000000 s
flag_key=K
[/PACKET]
[PACKET]
codec_type=video
stream_index=0
pts=48
pts_time=0:00:00.968067 s
dts=48
dts_time=0:00:00.968067 s
size=167.000 byte
file_pkt_nb=71
stream_pkt_nb=49
duration_ts=1
duration_time=0:00:00.020168 s
flag_key=K
[/PACKET]
[PACKET]
codec_type=video
stream_index=0
pts=49
pts_time=0:00:00.988235 s
dts=49
dts_time=0:00:00.988235 s
size=20.000 byte
file_pkt_nb=72
stream_pkt_nb=50
duration_ts=1
duration_time=0:00:00.020168 s
flag_key=K
[/PACKET]
[PACKET]
codec_type=audio
stream_index=1
pts=21504
pts_time=0:00:00.975238 s
dts=21504
dts_time=0:00:00.975238 s
size=129.000 byte
file_pkt_nb=73
stream_pkt_nb=23
duration_ts=0
duration_time=0:00:00.000000 s
flag_key=K
[/PACKET]
[PACKET]
codec_type=video
stream_index=0
pts=50
pts_time=0:00:01.008403 s
dts=50
dts_time=0:00:01.008403 s
size=759.000 byte
file_pkt_nb=74
stream_pkt_nb=51
duration_ts=1
duration_time=0:00:00.020168 s
flag_key=K
[/PACKET]
[PACKET]
codec_type=video
stream_index=0
pts=51
pts_time=0:00:01.028571 s
dts=51
dts_time=0:00:01.028571 s
size=138.000 byte
file_pkt_nb=75
stream_pkt_nb=52
duration_ts=1
duration_time=0:00:00.020168 s
flag_key=K
[/PACKET]
[PACKET]
codec_type=audio
stream_index=1
pts=22528
pts_time=0:00:01.021678 s
dts=22528
dts_time=0:00:01.021678 s
size=140.000 byte
file_pkt_nb=76
stream_pkt_nb=24
duration_ts=0
duration_time=0:00:00.000000 s
flag_key=K
[/PACKET]
[PACKET]
codec_type=video
stream_index=0
pts=52
pts_time=0:00:01.048739 s
dts=52
dts_time=0:00:01.048739 s
size=174.000 byte
file_pkt_nb=77
stream_pkt_nb=53
duration_ts=1
duration_time=0:00:00.020168 s
flag_key=K
[/PACKET]
[PACKET]
codec_type=video
stream_index=0
pts=53
pts_time=0:00:01.068908 s
dts=53
dts_time=0:00:01.068908 s
size=21.000 byte
file_pkt_nb=78
stream_pkt_nb=54
duration_ts=1
duration_time=0:00:00.020168 s
flag_key=K
[/PACKET]
[PACKET]
codec_type=video
stream_index=0
pts=54
pts_time=0:00:01.089076 s
dts=54
dts_time=0:00:01.089076 s
size=2.682 Kibyte
file_pkt_nb=79
stream_pkt_nb=55
duration_ts=1
duration_time=0:00:00.020168 s
flag_key=K
[/PACKET]
[PACKET]
codec_type=audio
stream_index=1
pts=23552
pts_time=0:00:01.068118 s
dts=23552
dts_time=0:00:01.068118 s
size=131.000 byte
file_pkt_nb=80
stream_pkt_nb=25
duration_ts=0
duration_time=0:00:00.000000 s
flag_key=K
[/PACKET]
[PACKET]
codec_type=video
stream_index=0
pts=55
pts_time=0:00:01.109244 s
dts=55
dts_time=0:00:01.109244 s
size=984.000 byte
file_pkt_nb=81
stream_pkt_nb=56
duration_ts=1
duration_time=0:00:00.020168 s
flag_key=K
[/PACKET]
[PACKET]
codec_type=video
stream_index=0
pts=56
pts_time=0:00:01.129412 s
dts=56
dts_time=0:00:01.129412 s
size=20.000 byte
file_pkt_nb=82
stream_pkt_nb=57
duration_ts=1
duration_time=0:00:00.020168 s
flag_key=K
[/PACKET]
[PACKET]
codec_type=audio
stream_index=1
pts=24576
pts_time=0:00:01.114558 s
dts=24576
dts_time=0:00:01.114558 s
size=135.000 byte
file_pkt_nb=83
stream_pkt_nb=26
duration_ts=0
duration_time=0:00:00.000000 s
flag_key=K
[/PACKET]
[PACKET]
codec_type=video
stream_index=0
pts=57
pts_time=0:00:01.149580 s
dts=57
dts_time=0:00:01.149580 s
size=171.000 byte
file_pkt_nb=84
stream_pkt_nb=58
duration_ts=1
duration_time=0:00:00.020168 s
flag_key=K
[/PACKET]
[PACKET]
codec_type=video
stream_index=0
pts=58
pts_time=0:00:01.169748 s
dts=58
dts_time=0:00:01.169748 s
size=23.000 byte
file_pkt_nb=85
stream_pkt_nb=59
duration_ts=1
duration_time=0:00:00.020168 s
flag_key=K
[/PACKET]
[PACKET]
codec_type=audio
stream_index=1
pts=25600
pts_time=0:00:01.160998 s
dts=25600
dts_time=0:00:01.160998 s
size=138.000 byte
file_pkt_nb=86
stream_pkt_nb=27
duration_ts=0
duration_time=0:00:00.000000 s
flag_key=K
[/PACKET]
[PACKET]
codec_type=video
stream_index=0
pts=59
pts_time=0:00:01.189916 s
dts=59
dts_time=0:00:01.189916 s
size=1.154 Kibyte
file_pkt_nb=87
stream_pkt_nb=60
duration_ts=1
duration_time=0:00:00.020168 s
flag_key=K
[/PACKET]
[PACKET]
codec_type=video
stream_index=0
pts=60
pts_time=0:00:01.210084 s
dts=60
dts_time=0:00:01.210084 s
size=18.000 byte
file_pkt_nb=88
stream_pkt_nb=61
duration_ts=1
duration_time=0:00:00.020168 s
flag_key=K
[/PACKET]
[PACKET]
codec_type=video
stream_index=0
pts=61
pts_time=0:00:01.230252 s
dts=61
dts_time=0:00:01.230252 s
size=26.000 byte
file_pkt_nb=89
stream_pkt_nb=62
duration_ts=1
duration_time=0:00:00.020168 s
flag_key=K
[/PACKET]
[PACKET]
codec_type=audio
stream_index=1
pts=26624
pts_time=0:00:01.207438 s
dts=26624
dts_time=0:00:01.207438 s
size=143.000 byte
file_pkt_nb=90
stream_pkt_nb=28
duration_ts=0
duration_time=0:00:00.000000 s
flag_key=K
[/PACKET]
[PACKET]
codec_type=video
stream_index=0
pts=62
pts_time=0:00:01.250420 s
dts=62
dts_time=0:00:01.250420 s
size=48.000 byte
file_pkt_nb=91
stream_pkt_nb=63
duration_ts=1
duration_time=0:00:00.020168 s
flag_key=K
[/PACKET]
[PACKET]
codec_type=video
stream_index=0
pts=63
pts_time=0:00:01.270588 s
dts=63
dts_time=0:00:01.270588 s
size=1.379 Kibyte
file_pkt_nb=92
stream_pkt_nb=64
duration_ts=1
duration_time=0:00:00.020168 s
flag_key=K
[/PACKET]
[PACKET]
codec_type=audio
stream_index=1
pts=27648
pts_time=0:00:01.253878 s
dts=27648
dts_time=0:00:01.253878 s
size=140.000 byte
file_pkt_nb=93
stream_pkt_nb=29
duration_ts=0
duration_time=0:00:00.000000 s
flag_key=K
[/PACKET]
[PACKET]
codec_type=video
stream_index=0
pts=64
pts_time=0:00:01.290756 s
dts=64
dts_time=0:00:01.290756 s
size=37.000 byte
file_pkt_nb=94
stream_pkt_nb=65
duration_ts=1
duration_time=0:00:00.020168 s
flag_key=K
[/PACKET]
[PACKET]
codec_type=video
stream_index=0
pts=65
pts_time=0:00:01.310924 s
dts=65
dts_time=0:00:01.310924 s
size=2.031 Kibyte
file_pkt_nb=95
stream_pkt_nb=66
duration_ts=1
duration_time=0:00:00.020168 s
flag_key=K
[/PACKET]
[PACKET]
codec_type=audio
stream_index=1
pts=28672
pts_time=0:00:01.300317 s
dts=28672
dts_time=0:00:01.300317 s
size=156.000 byte
file_pkt_nb=96
stream_pkt_nb=30
duration_ts=0
duration_time=0:00:00.000000 s
flag_key=K
[/PACKET]
[PACKET]
codec_type=video
stream_index=0
pts=66
pts_time=0:00:01.331092 s
dts=66
dts_time=0:00:01.331092 s
size=198.000 byte
file_pkt_nb=97
stream_pkt_nb=67
duration_ts=1
duration_time=0:00:00.020168 s
flag_key=K
[/PACKET]
[PACKET]
codec_type=video
stream_index=0
pts=67
pts_time=0:00:01.351261 s
dts=67
dts_time=0:00:01.351261 s
size=43.000 byte
file_pkt_nb=98
stream_pkt_nb=68
duration_ts=1
duration_time=0:00:00.020168 s
flag_key=K
[/PACKET]
[PACKET]
codec_type=video
stream_index=0
pts=68
pts_time=0:00:01.371429 s
dts=68
dts_time=0:00:01.371429 s
size=2.055 Kibyte
file_pkt_nb=99
stream_pkt_nb=69
duration_ts=1
duration_time=0:00:00.020168 s
flag_key=K
[/PACKET]
[PACKET]
codec_type=audio
stream_index=1
pts=29696
pts_time=0:00:01.346757 s
dts=29696
dts_time=0:00:01.346757 s
size=133.000 byte
file_pkt_nb=100
stream_pkt_nb=31
duration_ts=0
duration_time=0:00:00.000000 s
flag_key=K
[/PACKET]
[PACKET]
codec_type=video
stream_index=0
pts=69
pts_time=0:00:01.391597 s
dts=69
dts_time=0:00:01.391597 s
size=21.000 byte
file_pkt_nb=101
stream_pkt_nb=70
duration_ts=1
duration_time=0:00:00.020168 s
flag_key=K
[/PACKET]
[PACKET]
codec_type=video
stream_index=0
pts=70
pts_time=0:00:01.411765 s
dts=70
dts_time=0:00:01.411765 s
size=1.384 Kibyte
file_pkt_nb=102
stream_pkt_nb=71
duration_ts=1
duration_time=0:00:00.020168 s
flag_key=K
[/PACKET]
[PACKET]
codec_type=audio
stream_index=1
pts=30720
pts_time=0:00:01.393197 s
dts=30720
dts_time=0:00:01.393197 s
size=124.000 byte
file_pkt_nb=103
stream_pkt_nb=32
duration_ts=0
duration_time=0:00:00.000000 s
flag_key=K
[/PACKET]
[PACKET]
codec_type=video
stream_index=0
pts=71
pts_time=0:00:01.431933 s
dts=71
dts_time=0:00:01.431933 s
size=37.000 byte
file_pkt_nb=104
stream_pkt_nb=72
duration_ts=1
duration_time=0:00:00.020168 s
flag_key=K
[/PACKET]
[PACKET]
codec_type=video
stream_index=0
pts=72
pts_time=0:00:01.452101 s
dts=72
dts_time=0:00:01.452101 s
size=52.000 byte
file_pkt_nb=105
stream_pkt_nb=73
duration_ts=1
duration_time=0:00:00.020168 s
flag_key=K
[/PACKET]
[PACKET]
codec_type=audio
stream_index=1
pts=31744
pts_time=0:00:01.439637 s
dts=31744
dts_time=0:00:01.439637 s
size=119.000 byte
file_pkt_nb=106
stream_pkt_nb=33
duration_ts=0
duration_time=0:00:00.000000 s
flag_key=K
[/PACKET]
[PACKET]
codec_type=video
stream_index=0
pts=73
pts_time=0:00:01.472269 s
dts=73
dts_time=0:00:01.472269 s
size=850.000 byte
file_pkt_nb=107
stream_pkt_nb=74
duration_ts=1
duration_time=0:00:00.020168 s
flag_key=K
[/PACKET]
[PACKET]
codec_type=video
stream_index=0
pts=74
pts_time=0:00:01.492437 s
dts=74
dts_time=0:00:01.492437 s
size=15.000 byte
file_pkt_nb=108
stream_pkt_nb=75
duration_ts=1
duration_time=0:00:00.020168 s
flag_key=K
[/PACKET]
[PACKET]
codec_type=audio
stream_index=1
pts=32768
pts_time=0:00:01.486077 s
dts=32768
dts_time=0:00:01.486077 s
size=105.000 byte
file_pkt_nb=109
stream_pkt_nb=34
duration_ts=0
duration_time=0:00:00.000000 s
flag_key=K
[/PACKET]
[PACKET]
codec_type=video
stream_index=0
pts=75
pts_time=0:00:01.512605 s
dts=75
dts_time=0:00:01.512605 s
size=1.607 Kibyte
file_pkt_nb=110
stream_pkt_nb=76
duration_ts=1
duration_time=0:00:00.020168 s
flag_key=K
[/PACKET]
[PACKET]
codec_type=video
stream_index=0
pts=76
pts_time=0:00:01.532773 s
dts=76
dts_time=0:00:01.532773 s
size=15.000 byte
file_pkt_nb=111
stream_pkt_nb=77
duration_ts=1
duration_time=0:00:00.020168 s
flag_key=K
[/PACKET]
[PACKET]
codec_type=video
stream_index=0
pts=77
pts_time=0:00:01.552941 s
dts=77
dts_time=0:00:01.552941 s
size=958.000 byte
file_pkt_nb=112
stream_pkt_nb=78
duration_ts=1
duration_time=0:00:00.020168 s
flag_key=K
[/PACKET]
[PACKET]
codec_type=audio
stream_index=1
pts=33792
pts_time=0:00:01.532517 s
dts=33792
dts_time=0:00:01.532517 s
size=131.000 byte
file_pkt_nb=113
stream_pkt_nb=35
duration_ts=0
duration_time=0:00:00.000000 s
flag_key=K
[/PACKET]
[PACKET]
codec_type=video
stream_index=0
pts=78
pts_time=0:00:01.573109 s
dts=78
dts_time=0:00:01.573109 s
size=30.000 byte
file_pkt_nb=114
stream_pkt_nb=79
duration_ts=1
duration_time=0:00:00.020168 s
flag_key=K
[/PACKET]
[PACKET]
codec_type=video
stream_index=0
pts=79
pts_time=0:00:01.593277 s
dts=79
dts_time=0:00:01.593277 s
size=548.000 byte
file_pkt_nb=115
stream_pkt_nb=80
duration_ts=1
duration_time=0:00:00.020168 s
flag_key=K
[/PACKET]
[PACKET]
codec_type=audio
stream_index=1
pts=34816
pts_time=0:00:01.578957 s
dts=34816
dts_time=0:00:01.578957 s
size=135.000 byte
file_pkt_nb=116
stream_pkt_nb=36
duration_ts=0
duration_time=0:00:00.000000 s
flag_key=K
[/PACKET]
[PACKET]
codec_type=video
stream_index=0
pts=80
pts_time=0:00:01.613445 s
dts=80
dts_time=0:00:01.613445 s
size=16.000 byte
file_pkt_nb=117
stream_pkt_nb=81
duration_ts=1
duration_time=0:00:00.020168 s
flag_key=K
[/PACKET]
[PACKET]
codec_type=video
stream_index=0
pts=81
pts_time=0:00:01.633613 s
dts=81
dts_time=0:00:01.633613 s
size=41.000 byte
file_pkt_nb=118
stream_pkt_nb=82
duration_ts=1
duration_time=0:00:00.020168 s
flag_key=K
[/PACKET]
[PACKET]
codec_type=audio
stream_index=1
pts=35840
pts_time=0:00:01.625397 s
dts=35840
dts_time=0:00:01.625397 s
size=163.000 byte
file_pkt_nb=119
stream_pkt_nb=37
duration_ts=0
duration_time=0:00:00.000000 s
flag_key=K
[/PACKET]
[PACKET]
codec_type=video
stream_index=0
pts=82
pts_time=0:00:01.653782 s
dts=82
dts_time=0:00:01.653782 s
size=263.000 byte
file_pkt_nb=120
stream_pkt_nb=83
duration_ts=1
duration_time=0:00:00.020168 s
flag_key=K
[/PACKET]
[PACKET]
codec_type=video
stream_index=0
pts=83
pts_time=0:00:01.673950 s
dts=83
dts_time=0:00:01.673950 s
size=104.000 byte
file_pkt_nb=121
stream_pkt_nb=84
duration_ts=1
duration_time=0:00:00.020168 s
flag_key=K
[/PACKET]
[PACKET]
codec_type=video
stream_index=0
pts=84
pts_time=0:00:01.694118 s
dts=84
dts_time=0:00:01.694118 s
size=152.000 byte
file_pkt_nb=122
stream_pkt_nb=85
duration_ts=1
duration_time=0:00:00.020168 s
flag_key=K
[/PACKET]
[PACKET]
codec_type=audio
stream_index=1
pts=36864
pts_time=0:00:01.671837 s
dts=36864
dts_time=0:00:01.671837 s
size=132.000 byte
file_pkt_nb=123
stream_pkt_nb=38
duration_ts=0
duration_time=0:00:00.000000 s
flag_key=K
[/PACKET]
[PACKET]
codec_type=video
stream_index=0
pts=85
pts_time=0:00:01.714286 s
dts=85
dts_time=0:00:01.714286 s
size=218.000 byte
file_pkt_nb=124
stream_pkt_nb=86
duration_ts=1
duration_time=0:00:00.020168 s
flag_key=K
[/PACKET]
[PACKET]
codec_type=video
stream_index=0
pts=86
pts_time=0:00:01.734454 s
dts=86
dts_time=0:00:01.734454 s
size=1.980 Kibyte
file_pkt_nb=125
stream_pkt_nb=87
duration_ts=1
duration_time=0:00:00.020168 s
flag_key=K
[/PACKET]
[PACKET]
codec_type=audio
stream_index=1
pts=37888
pts_time=0:00:01.718277 s
dts=37888
dts_time=0:00:01.718277 s
size=148.000 byte
file_pkt_nb=126
stream_pkt_nb=39
duration_ts=0
duration_time=0:00:00.000000 s
flag_key=K
[/PACKET]
[PACKET]
codec_type=video
stream_index=0
pts=87
pts_time=0:00:01.754622 s
dts=87
dts_time=0:00:01.754622 s
size=17.000 byte
file_pkt_nb=127
stream_pkt_nb=88
duration_ts=1
duration_time=0:00:00.020168 s
flag_key=K
[/PACKET]
[PACKET]
codec_type=video
stream_index=0
pts=88
pts_time=0:00:01.774790 s
dts=88
dts_time=0:00:01.774790 s
size=621.000 byte
file_pkt_nb=128
stream_pkt_nb=89
duration_ts=1
duration_time=0:00:00.020168 s
flag_key=K
[/PACKET]
[PACKET]
codec_type=audio
stream_index=1
pts=38912
pts_time=0:00:01.764717 s
dts=38912
dts_time=0:00:01.764717 s
size=155.000 byte
file_pkt_nb=129
stream_pkt_nb=40
duration_ts=0
duration_time=0:00:00.000000 s
flag_key=K
[/PACKET]
[PACKET]
codec_type=video
stream_index=0
pts=89
pts_time=0:00:01.794958 s
dts=89
dts_time=0:00:01.794958 s
size=107.000 byte
file_pkt_nb=130
stream_pkt_nb=90
duration_ts=1
duration_time=0:00:00.020168 s
flag_key=K
[/PACKET]
[PACKET]
codec_type=video
stream_index=0
pts=90
pts_time=0:00:01.815126 s
dts=90
dts_time=0:00:01.815126 s
size=516.000 byte
file_pkt_nb=131
stream_pkt_nb=91
duration_ts=1
duration_time=0:00:00.020168 s
flag_key=K
[/PACKET]
[PACKET]
codec_type=video
stream_index=0
pts=91
pts_time=0:00:01.835294 s
dts=91
dts_time=0:00:01.835294 s
size=66.000 byte
file_pkt_nb=132
stream_pkt_nb=92
duration_ts=1
duration_time=0:00:00.020168 s
flag_key=K
[/PACKET]
[PACKET]
codec_type=audio
stream_index=1
pts=39936
pts_time=0:00:01.811156 s
dts=39936
dts_time=0:00:01.811156 s
size=154.000 byte
file_pkt_nb=133
stream_pkt_nb=41
duration_ts=0
duration_time=0:00:00.000000 s
flag_key=K
[/PACKET]
[PACKET]
codec_type=video
stream_index=0
pts=92
pts_time=0:00:01.855462 s
dts=92
dts_time=0:00:01.855462 s
size=948.000 byte
file_pkt_nb=134
stream_pkt_nb=93
duration_ts=1
duration_time=0:00:00.020168 s
flag_key=K
[/PACKET]
[PACKET]
codec_type=video
stream_index=0
pts=93
pts_time=0:00:01.875630 s
dts=93
dts_time=0:00:01.875630 s
size=27.000 byte
file_pkt_nb=135
stream_pkt_nb=94
duration_ts=1
duration_time=0:00:00.020168 s
flag_key=K
[/PACKET]
[PACKET]
codec_type=audio
stream_index=1
pts=40960
pts_time=0:00:01.857596 s
dts=40960
dts_time=0:00:01.857596 s
size=147.000 byte
file_pkt_nb=136
stream_pkt_nb=42
duration_ts=0
duration_time=0:00:00.000000 s
flag_key=K
[/PACKET]
[PACKET]
codec_type=video
stream_index=0
pts=94
pts_time=0:00:01.895798 s
dts=94
dts_time=0:00:01.895798 s
size=1007.000 byte
file_pkt_nb=137
stream_pkt_nb=95
duration_ts=1
duration_time=0:00:00.020168 s
flag_key=K
[/PACKET]
[PACKET]
codec_type=video
stream_index=0
pts=95
pts_time=0:00:01.915966 s
dts=95
dts_time=0:00:01.915966 s
size=36.000 byte
file_pkt_nb=138
stream_pkt_nb=96
duration_ts=1
duration_time=0:00:00.020168 s
flag_key=K
[/PACKET]
[PACKET]
codec_type=audio
stream_index=1
pts=41984
pts_time=0:00:01.904036 s
dts=41984
dts_time=0:00:01.904036 s
size=140.000 byte
file_pkt_nb=139
stream_pkt_nb=43
duration_ts=0
duration_time=0:00:00.000000 s
flag_key=K
[/PACKET]
[PACKET]
codec_type=video
stream_index=0
pts=96
pts_time=0:00:01.936134 s
dts=96
dts_time=0:00:01.936134 s
size=361.000 byte
file_pkt_nb=140
stream_pkt_nb=97
duration_ts=1
duration_time=0:00:00.020168 s
flag_key=K
[/PACKET]
[PACKET]
codec_type=video
stream_index=0
pts=97
pts_time=0:00:01.956303 s
dts=97
dts_time=0:00:01.956303 s
size=37.000 byte
file_pkt_nb=141
stream_pkt_nb=98
duration_ts=1
duration_time=0:00:00.020168 s
flag_key=K
[/PACKET]
[PACKET]
codec_type=video
stream_index=0
pts=98
pts_time=0:00:01.976471 s
dts=98
dts_time=0:00:01.976471 s
size=3.586 Kibyte
file_pkt_nb=142
stream_pkt_nb=99
duration_ts=1
duration_time=0:00:00.020168 s
flag_key=K
[/PACKET]
[PACKET]
codec_type=audio
stream_index=1
pts=43008
pts_time=0:00:01.950476 s
dts=43008
dts_time=0:00:01.950476 s
size=140.000 byte
file_pkt_nb=143
stream_pkt_nb=44
duration_ts=0
duration_time=0:00:00.000000 s
flag_key=K
[/PACKET]
[PACKET]
codec_type=video
stream_index=0
pts=99
pts_time=0:00:01.996639 s
dts=99
dts_time=0:00:01.996639 s
size=29.000 byte
file_pkt_nb=144
stream_pkt_nb=100
duration_ts=1
duration_time=0:00:00.020168 s
flag_key=K
[/PACKET]
[PACKET]
codec_type=video
stream_index=0
pts=100
pts_time=0:00:02.016807 s
dts=100
dts_time=0:00:02.016807 s
size=303.000 byte
file_pkt_nb=145
stream_pkt_nb=101
duration_ts=1
duration_time=0:00:00.020168 s
flag_key=K
[/PACKET]
[PACKET]
codec_type=audio
stream_index=1
pts=44032
pts_time=0:00:01.996916 s
dts=44032
dts_time=0:00:01.996916 s
size=146.000 byte
file_pkt_nb=146
stream_pkt_nb=45
duration_ts=0
duration_time=0:00:00.000000 s
flag_key=K
[/PACKET]
[PACKET]
codec_type=video
stream_index=0
pts=101
pts_time=0:00:02.036975 s
dts=101
dts_time=0:00:02.036975 s
size=228.000 byte
file_pkt_nb=147
stream_pkt_nb=102
duration_ts=1
duration_time=0:00:00.020168 s
flag_key=K
[/PACKET]
[PACKET]
codec_type=video
stream_index=0
pts=102
pts_time=0:00:02.057143 s
dts=102
dts_time=0:00:02.057143 s
size=783.000 byte
file_pkt_nb=148
stream_pkt_nb=103
duration_ts=1
duration_time=0:00:00.020168 s
flag_key=K
[/PACKET]
[PACKET]
codec_type=audio
stream_index=1
pts=45056
pts_time=0:00:02.043356 s
dts=45056
dts_time=0:00:02.043356 s
size=158.000 byte
file_pkt_nb=149
stream_pkt_nb=46
duration_ts=0
duration_time=0:00:00.000000 s
flag_key=K
[/PACKET]
[PACKET]
codec_type=video
stream_index=0
pts=103
pts_time=0:00:02.077311 s
dts=103
dts_time=0:00:02.077311 s
size=14.000 byte
file_pkt_nb=150
stream_pkt_nb=104
duration_ts=1
duration_time=0:00:00.020168 s
flag_key=K
[/PACKET]
[PACKET]
codec_type=video
stream_index=0
pts=104
pts_time=0:00:02.097479 s
dts=104
dts_time=0:00:02.097479 s
size=546.000 byte
file_pkt_nb=151
stream_pkt_nb=105
duration_ts=1
duration_time=0:00:00.020168 s
flag_key=K
[/PACKET]
[PACKET]
codec_type=audio
stream_index=1
pts=46080
pts_time=0:00:02.089796 s
dts=46080
dts_time=0:00:02.089796 s
size=156.000 byte
file_pkt_nb=152
stream_pkt_nb=47
duration_ts=0
duration_time=0:00:00.000000 s
flag_key=K
[/PACKET]
[PACKET]
codec_type=video
stream_index=0
pts=105
pts_time=0:00:02.117647 s
dts=105
dts_time=0:00:02.117647 s
size=20.000 byte
file_pkt_nb=153
stream_pkt_nb=106
duration_ts=1
duration_time=0:00:00.020168 s
flag_key=K
[/PACKET]
[PACKET]
codec_type=video
stream_index=0
pts=106
pts_time=0:00:02.137815 s
dts=106
dts_time=0:00:02.137815 s
size=224.000 byte
file_pkt_nb=154
stream_pkt_nb=107
duration_ts=1
duration_time=0:00:00.020168 s
flag_key=K
[/PACKET]
[PACKET]
codec_type=video
stream_index=0
pts=107
pts_time=0:00:02.157983 s
dts=107
dts_time=0:00:02.157983 s
size=31.000 byte
file_pkt_nb=155
stream_pkt_nb=108
duration_ts=1
duration_time=0:00:00.020168 s
flag_key=K
[/PACKET]
[PACKET]
codec_type=audio
stream_index=1
pts=47104
pts_time=0:00:02.136236 s
dts=47104
dts_time=0:00:02.136236 s
size=157.000 byte
file_pkt_nb=156
stream_pkt_nb=48
duration_ts=0
duration_time=0:00:00.000000 s
flag_key=K
[/PACKET]
[PACKET]
codec_type=video
stream_index=0
pts=108
pts_time=0:00:02.178151 s
dts=108
dts_time=0:00:02.178151 s
size=830.000 byte
file_pkt_nb=157
stream_pkt_nb=109
duration_ts=1
duration_time=0:00:00.020168 s
flag_key=K
[/PACKET]
[PACKET]
codec_type=video
stream_index=0
pts=109
pts_time=0:00:02.198319 s
dts=109
dts_time=0:00:02.198319 s
size=29.000 byte
file_pkt_nb=158
stream_pkt_nb=110
duration_ts=1
duration_time=0:00:00.020168 s
flag_key=K
[/PACKET]
[PACKET]
codec_type=audio
stream_index=1
pts=48128
pts_time=0:00:02.182676 s
dts=48128
dts_time=0:00:02.182676 s
size=143.000 byte
file_pkt_nb=159
stream_pkt_nb=49
duration_ts=0
duration_time=0:00:00.000000 s
flag_key=K
[/PACKET]
[PACKET]
codec_type=video
stream_index=0
pts=110
pts_time=0:00:02.218487 s
dts=110
dts_time=0:00:02.218487 s
size=3.083 Kibyte
file_pkt_nb=160
stream_pkt_nb=111
duration_ts=1
duration_time=0:00:00.020168 s
flag_key=K
[/PACKET]
[PACKET]
codec_type=video
stream_index=0
pts=111
pts_time=0:00:02.238655 s
dts=111
dts_time=0:00:02.238655 s
size=27.000 byte
file_pkt_nb=161
stream_pkt_nb=112
duration_ts=1
duration_time=0:00:00.020168 s
flag_key=K
[/PACKET]
[PACKET]
codec_type=audio
stream_index=1
pts=49152
pts_time=0:00:02.229116 s
dts=49152
dts_time=0:00:02.229116 s
size=136.000 byte
file_pkt_nb=162
stream_pkt_nb=50
duration_ts=0
duration_time=0:00:00.000000 s
flag_key=K
[/PACKET]
[PACKET]
codec_type=video
stream_index=0
pts=112
pts_time=0:00:02.258824 s
dts=112
dts_time=0:00:02.258824 s
size=359.000 byte
file_pkt_nb=163
stream_pkt_nb=113
duration_ts=1
duration_time=0:00:00.020168 s
flag_key=K
[/PACKET]
[PACKET]
codec_type=video
stream_index=0
pts=113
pts_time=0:00:02.278992 s
dts=113
dts_time=0:00:02.278992 s
size=175.000 byte
file_pkt_nb=164
stream_pkt_nb=114
duration_ts=1
duration_time=0:00:00.020168 s
flag_key=K
[/PACKET]
[PACKET]
codec_type=video
stream_index=0
pts=114
pts_time=0:00:02.299160 s
dts=114
dts_time=0:00:02.299160 s
size=854.000 byte
file_pkt_nb=165
stream_pkt_nb=115
duration_ts=1
duration_time=0:00:00.020168 s
flag_key=K
[/PACKET]
[PACKET]
codec_type=audio
stream_index=1
pts=50176
pts_time=0:00:02.275556 s
dts=50176
dts_time=0:00:02.275556 s
size=142.000 byte
file_pkt_nb=166
stream_pkt_nb=51
duration_ts=0
duration_time=0:00:00.000000 s
flag_key=K
[/PACKET]
[PACKET]
codec_type=video
stream_index=0
pts=115
pts_time=0:00:02.319328 s
dts=115
dts_time=0:00:02.319328 s
size=673.000 byte
file_pkt_nb=167
stream_pkt_nb=116
duration_ts=1
duration_time=0:00:00.020168 s
flag_key=K
[/PACKET]
[PACKET]
codec_type=video
stream_index=0
pts=116
pts_time=0:00:02.339496 s
dts=116
dts_time=0:00:02.339496 s
size=18.000 byte
file_pkt_nb=168
stream_pkt_nb=117
duration_ts=1
duration_time=0:00:00.020168 s
flag_key=K
[/PACKET]
[PACKET]
codec_type=audio
stream_index=1
pts=51200
pts_time=0:00:02.321995 s
dts=51200
dts_time=0:00:02.321995 s
size=147.000 byte
file_pkt_nb=169
stream_pkt_nb=52
duration_ts=0
duration_time=0:00:00.000000 s
flag_key=K
[/PACKET]
[PACKET]
codec_type=video
stream_index=0
pts=117
pts_time=0:00:02.359664 s
dts=117
dts_time=0:00:02.359664 s
size=142.000 byte
file_pkt_nb=170
stream_pkt_nb=118
duration_ts=1
duration_time=0:00:00.020168 s
flag_key=K
[/PACKET]
[PACKET]
codec_type=video
stream_index=0
pts=118
pts_time=0:00:02.379832 s
dts=118
dts_time=0:00:02.379832 s
size=90.000 byte
file_pkt_nb=171
stream_pkt_nb=119
duration_ts=1
duration_time=0:00:00.020168 s
flag_key=K
[/PACKET]
[PACKET]
codec_type=audio
stream_index=1
pts=52224
pts_time=0:00:02.368435 s
dts=52224
dts_time=0:00:02.368435 s
size=142.000 byte
file_pkt_nb=172
stream_pkt_nb=53
duration_ts=0
duration_time=0:00:00.000000 s
flag_key=K
[/PACKET]
[PACKET]
codec_type=video
stream_index=0
pts=119
pts_time=0:00:02.400000 s
dts=119
dts_time=0:00:02.400000 s
size=489.000 byte
file_pkt_nb=173
stream_pkt_nb=120
duration_ts=1
duration_time=0:00:00.020168 s
flag_key=K
[/PACKET]
[PACKET]
codec_type=video
stream_index=0
pts=120
pts_time=0:00:02.420168 s
dts=120
dts_time=0:00:02.420168 s
size=26.000 byte
file_pkt_nb=174
stream_pkt_nb=121
duration_ts=1
duration_time=0:00:00.020168 s
flag_key=K
[/PACKET]
[PACKET]
codec_type=video
stream_index=0
pts=121
pts_time=0:00:02.440336 s
dts=121
dts_time=0:00:02.440336 s
size=3.339 Kibyte
file_pkt_nb=175
stream_pkt_nb=122
duration_ts=1
duration_time=0:00:00.020168 s
flag_key=K
[/PACKET]
[PACKET]
codec_type=audio
stream_index=1
pts=53248
pts_time=0:00:02.414875 s
dts=53248
dts_time=0:00:02.414875 s
size=139.000 byte
file_pkt_nb=176
stream_pkt_nb=54
duration_ts=0
duration_time=0:00:00.000000 s
flag_key=K
[/PACKET]
[PACKET]
codec_type=video
stream_index=0
pts=122
pts_time=0:00:02.460504 s
dts=122
dts_time=0:00:02.460504 s
size=14.000 byte
file_pkt_nb=177
stream_pkt_nb=123
duration_ts=1
duration_time=0:00:00.020168 s
flag_key=K
[/PACKET]
[PACKET]
codec_type=video
stream_index=0
pts=123
pts_time=0:00:02.480672 s
dts=123
dts_time=0:00:02.480672 s
size=373.000 byte
file_pkt_nb=178
stream_pkt_nb=124
duration_ts=1
duration_time=0:00:00.020168 s
flag_key=K
[/PACKET]
[PACKET]
codec_type=audio
stream_index=1
pts=54272
pts_time=0:00:02.461315 s
dts=54272
dts_time=0:00:02.461315 s
size=140.000 byte
file_pkt_nb=179
stream_pkt_nb=55
duration_ts=0
duration_time=0:00:00.000000 s
flag_key=K
[/PACKET]
[PACKET]
codec_type=video
stream_index=0
pts=124
pts_time=0:00:02.500840 s
dts=124
dts_time=0:00:02.500840 s
size=74.000 byte
file_pkt_nb=180
stream_pkt_nb=125
duration_ts=1
duration_time=0:00:00.020168 s
flag_key=K
[/PACKET]
[PACKET]
codec_type=video
stream_index=0
pts=125
pts_time=0:00:02.521008 s
dts=125
dts_time=0:00:02.521008 s
size=855.000 byte
file_pkt_nb=181
stream_pkt_nb=126
duration_ts=1
duration_time=0:00:00.020168 s
flag_key=K
[/PACKET]
[PACKET]
codec_type=audio
stream_index=1
pts=55296
pts_time=0:00:02.507755 s
dts=55296
dts_time=0:00:02.507755 s
size=140.000 byte
file_pkt_nb=182
stream_pkt_nb=56
duration_ts=0
duration_time=0:00:00.000000 s
flag_key=K
[/PACKET]
[PACKET]
codec_type=video
stream_index=0
pts=126
pts_time=0:00:02.541176 s
dts=126
dts_time=0:00:02.541176 s
size=23.000 byte
file_pkt_nb=183
stream_pkt_nb=127
duration_ts=1
duration_time=0:00:00.020168 s
flag_key=K
[/PACKET]
[PACKET]
codec_type=video
stream_index=0
pts=127
pts_time=0:00:02.561345 s
dts=127
dts_time=0:00:02.561345 s
size=235.000 byte
file_pkt_nb=184
stream_pkt_nb=128
duration_ts=1
duration_time=0:00:00.020168 s
flag_key=K
[/PACKET]
[PACKET]
codec_type=audio
stream_index=1
pts=56320
pts_time=0:00:02.554195 s
dts=56320
dts_time=0:00:02.554195 s
size=139.000 byte
file_pkt_nb=185
stream_pkt_nb=57
duration_ts=0
duration_time=0:00:00.000000 s
flag_key=K
[/PACKET]
[PACKET]
codec_type=video
stream_index=0
pts=128
pts_time=0:00:02.581513 s
dts=128
dts_time=0:00:02.581513 s
size=14.000 byte
file_pkt_nb=186
stream_pkt_nb=129
duration_ts=1
duration_time=0:00:00.020168 s
flag_key=K
[/PACKET]
[PACKET]
codec_type=video
stream_index=0
pts=129
pts_time=0:00:02.601681 s
dts=129
dts_time=0:00:02.601681 s
size=370.000 byte
file_pkt_nb=187
stream_pkt_nb=130
duration_ts=1
duration_time=0:00:00.020168 s
flag_key=K
[/PACKET]
[PACKET]
codec_type=video
stream_index=0
pts=130
pts_time=0:00:02.621849 s
dts=130
dts_time=0:00:02.621849 s
size=87.000 byte
file_pkt_nb=188
stream_pkt_nb=131
duration_ts=1
duration_time=0:00:00.020168 s
flag_key=K
[/PACKET]
[PACKET]
codec_type=audio
stream_index=1
pts=57344
pts_time=0:00:02.600635 s
dts=57344
dts_time=0:00:02.600635 s
size=143.000 byte
file_pkt_nb=189
stream_pkt_nb=58
duration_ts=0
duration_time=0:00:00.000000 s
flag_key=K
[/PACKET]
[PACKET]
codec_type=video
stream_index=0
pts=131
pts_time=0:00:02.642017 s
dts=131
dts_time=0:00:02.642017 s
size=856.000 byte
file_pkt_nb=190
stream_pkt_nb=132
duration_ts=1
duration_time=0:00:00.020168 s
flag_key=K
[/PACKET]
[PACKET]
codec_type=video
stream_index=0
pts=132
pts_time=0:00:02.662185 s
dts=132
dts_time=0:00:02.662185 s
size=22.000 byte
file_pkt_nb=191
stream_pkt_nb=133
duration_ts=1
duration_time=0:00:00.020168 s
flag_key=K
[/PACKET]
[PACKET]
codec_type=audio
stream_index=1
pts=58368
pts_time=0:00:02.647075 s
dts=58368
dts_time=0:00:02.647075 s
size=141.000 byte
file_pkt_nb=192
stream_pkt_nb=59
duration_ts=0
duration_time=0:00:00.000000 s
flag_key=K
[/PACKET]
[PACKET]
codec_type=video
stream_index=0
pts=133
pts_time=0:00:02.682353 s
dts=133
dts_time=0:00:02.682353 s
size=2.957 Kibyte
file_pkt_nb=193
stream_pkt_nb=134
duration_ts=1
duration_time=0:00:00.020168 s
flag_key=K
[/PACKET]
[PACKET]
codec_type=video
stream_index=0
pts=134
pts_time=0:00:02.702521 s
dts=134
dts_time=0:00:02.702521 s
size=127.000 byte
file_pkt_nb=194
stream_pkt_nb=135
duration_ts=1
duration_time=0:00:00.020168 s
flag_key=K
[/PACKET]
[PACKET]
codec_type=audio
stream_index=1
pts=59392
pts_time=0:00:02.693515 s
dts=59392
dts_time=0:00:02.693515 s
size=134.000 byte
file_pkt_nb=195
stream_pkt_nb=60
duration_ts=0
duration_time=0:00:00.000000 s
flag_key=K
[/PACKET]
[PACKET]
codec_type=video
stream_index=0
pts=135
pts_time=0:00:02.722689 s
dts=135
dts_time=0:00:02.722689 s
size=18.000 byte
file_pkt_nb=196
stream_pkt_nb=136
duration_ts=1
duration_time=0:00:00.020168 s
flag_key=K
[/PACKET]
[PACKET]
codec_type=video
stream_index=0
pts=136
pts_time=0:00:02.742857 s
dts=136
dts_time=0:00:02.742857 s
size=773.000 byte
file_pkt_nb=197
stream_pkt_nb=137
duration_ts=1
duration_time=0:00:00.020168 s
flag_key=K
[/PACKET]
[PACKET]
codec_type=video
stream_index=0
pts=137
pts_time=0:00:02.763025 s
dts=137
dts_time=0:00:02.763025 s
size=63.000 byte
file_pkt_nb=198
stream_pkt_nb=138
duration_ts=1
duration_time=0:00:00.020168 s
flag_key=K
[/PACKET]
[PACKET]
codec_type=audio
stream_index=1
pts=60416
pts_time=0:00:02.739955 s
dts=60416
dts_time=0:00:02.739955 s
size=124.000 byte
file_pkt_nb=199
stream_pkt_nb=61
duration_ts=0
duration_time=0:00:00.000000 s
flag_key=K
[/PACKET]
[PACKET]
codec_type=video
stream_index=0
pts=138
pts_time=0:00:02.783193 s
dts=138
dts_time=0:00:02.783193 s
size=666.000 byte
file_pkt_nb=200
stream_pkt_nb=139
duration_ts=1
duration_time=0:00:00.020168 s
flag_key=K
[/PACKET]
[PACKET]
codec_type=video
stream_index=0
pts=139
pts_time=0:00:02.803361 s
dts=139
dts_time=0:00:02.803361 s
size=164.000 byte
file_pkt_nb=201
stream_pkt_nb=140
duration_ts=1
duration_time=0:00:00.020168 s
flag_key=K
[/PACKET]
[PACKET]
codec_type=audio
stream_index=1
pts=61440
pts_time=0:00:02.786395 s
dts=61440
dts_time=0:00:02.786395 s
size=132.000 byte
file_pkt_nb=202
stream_pkt_nb=62
duration_ts=0
duration_time=0:00:00.000000 s
flag_key=K
[/PACKET]
[PACKET]
codec_type=video
stream_index=0
pts=140
pts_time=0:00:02.823529 s
dts=140
dts_time=0:00:02.823529 s
size=68.000 byte
file_pkt_nb=203
stream_pkt_nb=141
duration_ts=1
duration_time=0:00:00.020168 s
flag_key=K
[/PACKET]
[PACKET]
codec_type=video
stream_index=0
pts=141
pts_time=0:00:02.843697 s
dts=141
dts_time=0:00:02.843697 s
size=360.000 byte
file_pkt_nb=204
stream_pkt_nb=142
duration_ts=1
duration_time=0:00:00.020168 s
flag_key=K
[/PACKET]
[PACKET]
codec_type=audio
stream_index=1
pts=62464
pts_time=0:00:02.832834 s
dts=62464
dts_time=0:00:02.832834 s
size=134.000 byte
file_pkt_nb=205
stream_pkt_nb=63
duration_ts=0
duration_time=0:00:00.000000 s
flag_key=K
[/PACKET]
[PACKET]
codec_type=video
stream_index=0
pts=142
pts_time=0:00:02.863866 s
dts=142
dts_time=0:00:02.863866 s
size=15.000 byte
file_pkt_nb=206
stream_pkt_nb=143
duration_ts=1
duration_time=0:00:00.020168 s
flag_key=K
[/PACKET]
[PACKET]
codec_type=video
stream_index=0
pts=143
pts_time=0:00:02.884034 s
dts=143
dts_time=0:00:02.884034 s
size=3.622 Kibyte
file_pkt_nb=207
stream_pkt_nb=144
duration_ts=1
duration_time=0:00:00.020168 s
flag_key=K
[/PACKET]
[PACKET]
codec_type=video
stream_index=0
pts=144
pts_time=0:00:02.904202 s
dts=144
dts_time=0:00:02.904202 s
size=372.000 byte
file_pkt_nb=208
stream_pkt_nb=145
duration_ts=1
duration_time=0:00:00.020168 s
flag_key=K
[/PACKET]
[PACKET]
codec_type=audio
stream_index=1
pts=63488
pts_time=0:00:02.879274 s
dts=63488
dts_time=0:00:02.879274 s
size=131.000 byte
file_pkt_nb=209
stream_pkt_nb=64
duration_ts=0
duration_time=0:00:00.000000 s
flag_key=K
[/PACKET]
[PACKET]
codec_type=video
stream_index=0
pts=145
pts_time=0:00:02.924370 s
dts=145
dts_time=0:00:02.924370 s
size=41.000 byte
file_pkt_nb=210
stream_pkt_nb=146
duration_ts=1
duration_time=0:00:00.020168 s
flag_key=K
[/PACKET]
[PACKET]
codec_type=video
stream_index=0
pts=146
pts_time=0:00:02.944538 s
dts=146
dts_time=0:00:02.944538 s
size=823.000 byte
file_pkt_nb=211
stream_pkt_nb=147
duration_ts=1
duration_time=0:00:00.020168 s
flag_key=K
[/PACKET]
[PACKET]
codec_type=audio
stream_index=1
pts=64512
pts_time=0:00:02.925714 s
dts=64512
dts_time=0:00:02.925714 s
size=119.000 byte
file_pkt_nb=212
stream_pkt_nb=65
duration_ts=0
duration_time=0:00:00.000000 s
flag_key=K
[/PACKET]
[PACKET]
codec_type=video
stream_index=0
pts=147
pts_time=0:00:02.964706 s
dts=147
dts_time=0:00:02.964706 s
size=41.000 byte
file_pkt_nb=213
stream_pkt_nb=148
duration_ts=1
duration_time=0:00:00.020168 s
flag_key=K
[/PACKET]
[PACKET]
codec_type=video
stream_index=0
pts=148
pts_time=0:00:02.984874 s
dts=148
dts_time=0:00:02.984874 s
size=193.000 byte
file_pkt_nb=214
stream_pkt_nb=149
duration_ts=1
duration_time=0:00:00.020168 s
flag_key=K
[/PACKET]
[PACKET]
codec_type=audio
stream_index=1
pts=65536
pts_time=0:00:02.972154 s
dts=65536
dts_time=0:00:02.972154 s
size=131.000 byte
file_pkt_nb=215
stream_pkt_nb=66
duration_ts=0
duration_time=0:00:00.000000 s
flag_key=K
[/PACKET]
[PACKET]
codec_type=video
stream_index=0
pts=149
pts_time=0:00:03.005042 s
dts=149
dts_time=0:00:03.005042 s
size=396.000 byte
file_pkt_nb=216
stream_pkt_nb=150
duration_ts=1
duration_time=0:00:00.020168 s
flag_key=K
[/PACKET]
[PACKET]
codec_type=video
stream_index=0
pts=150
pts_time=0:00:03.025210 s
dts=150
dts_time=0:00:03.025210 s
size=20.000 byte
file_pkt_nb=217
stream_pkt_nb=151
duration_ts=1
duration_time=0:00:00.020168 s
flag_key=K
[/PACKET]
[PACKET]
codec_type=audio
stream_index=1
pts=66560
pts_time=0:00:03.018594 s
dts=66560
dts_time=0:00:03.018594 s
size=144.000 byte
file_pkt_nb=218
stream_pkt_nb=67
duration_ts=0
duration_time=0:00:00.000000 s
flag_key=K
[/PACKET]
[PACKET]
codec_type=video
stream_index=0
pts=151
pts_time=0:00:03.045378 s
dts=151
dts_time=0:00:03.045378 s
size=849.000 byte
file_pkt_nb=219
stream_pkt_nb=152
duration_ts=1
duration_time=0:00:00.020168 s
flag_key=K
[/PACKET]
[PACKET]
codec_type=video
stream_index=0
pts=152
pts_time=0:00:03.065546 s
dts=152
dts_time=0:00:03.065546 s
size=15.000 byte
file_pkt_nb=220
stream_pkt_nb=153
duration_ts=1
duration_time=0:00:00.020168 s
flag_key=K
[/PACKET]
[PACKET]
codec_type=video
stream_index=0
pts=153
pts_time=0:00:03.085714 s
dts=153
dts_time=0:00:03.085714 s
size=3.378 Kibyte
file_pkt_nb=221
stream_pkt_nb=154
duration_ts=1
duration_time=0:00:00.020168 s
flag_key=K
[/PACKET]
[PACKET]
codec_type=audio
stream_index=1
pts=67584
pts_time=0:00:03.065034 s
dts=67584
dts_time=0:00:03.065034 s
size=129.000 byte
file_pkt_nb=222
stream_pkt_nb=68
duration_ts=0
duration_time=0:00:00.000000 s
flag_key=K
[/PACKET]
[PACKET]
codec_type=video
stream_index=0
pts=154
pts_time=0:00:03.105882 s
dts=154
dts_time=0:00:03.105882 s
size=17.000 byte
file_pkt_nb=223
stream_pkt_nb=155
duration_ts=1
duration_time=0:00:00.020168 s
flag_key=K
[/PACKET]
[PACKET]
codec_type=video
stream_index=0
pts=155
pts_time=0:00:03.126050 s
dts=155
dts_time=0:00:03.126050 s
size=195.000 byte
file_pkt_nb=224
stream_pkt_nb=156
duration_ts=1
duration_time=0:00:00.020168 s
flag_key=K
[/PACKET]
[PACKET]
codec_type=audio
stream_index=1
pts=68608
pts_time=0:00:03.111474 s
dts=68608
dts_time=0:00:03.111474 s
size=138.000 byte
file_pkt_nb=225
stream_pkt_nb=69
duration_ts=0
duration_time=0:00:00.000000 s
flag_key=K
[/PACKET]
[PACKET]
codec_type=video
stream_index=0
pts=156
pts_time=0:00:03.146218 s
dts=156
dts_time=0:00:03.146218 s
size=79.000 byte
file_pkt_nb=226
stream_pkt_nb=157
duration_ts=1
duration_time=0:00:00.020168 s
flag_key=K
[/PACKET]
[PACKET]
codec_type=video
stream_index=0
pts=157
pts_time=0:00:03.166387 s
dts=157
dts_time=0:00:03.166387 s
size=955.000 byte
file_pkt_nb=227
stream_pkt_nb=158
duration_ts=1
duration_time=0:00:00.020168 s
flag_key=K
[/PACKET]
[PACKET]
codec_type=audio
stream_index=1
pts=69632
pts_time=0:00:03.157914 s
dts=69632
dts_time=0:00:03.157914 s
size=134.000 byte
file_pkt_nb=228
stream_pkt_nb=70
duration_ts=0
duration_time=0:00:00.000000 s
flag_key=K
[/PACKET]
[PACKET]
codec_type=video
stream_index=0
pts=158
pts_time=0:00:03.186555 s
dts=158
dts_time=0:00:03.186555 s
size=22.000 byte
file_pkt_nb=229
stream_pkt_nb=159
duration_ts=1
duration_time=0:00:00.020168 s
flag_key=K
[/PACKET]
[PACKET]
codec_type=video
stream_index=0
pts=159
pts_time=0:00:03.206723 s
dts=159
dts_time=0:00:03.206723 s
size=197.000 byte
file_pkt_nb=230
stream_pkt_nb=160
duration_ts=1
duration_time=0:00:00.020168 s
flag_key=K
[/PACKET]
[PACKET]
codec_type=video
stream_index=0
pts=160
pts_time=0:00:03.226891 s
dts=160
dts_time=0:00:03.226891 s
size=451.000 byte
file_pkt_nb=231
stream_pkt_nb=161
duration_ts=1
duration_time=0:00:00.020168 s
flag_key=K
[/PACKET]
[PACKET]
codec_type=audio
stream_index=1
pts=70656
pts_time=0:00:03.204354 s
dts=70656
dts_time=0:00:03.204354 s
size=128.000 byte
file_pkt_nb=232
stream_pkt_nb=71
duration_ts=0
duration_time=0:00:00.000000 s
flag_key=K
[/PACKET]
[PACKET]
codec_type=video
stream_index=0
pts=161
pts_time=0:00:03.247059 s
dts=161
dts_time=0:00:03.247059 s
size=48.000 byte
file_pkt_nb=233
stream_pkt_nb=162
duration_ts=1
duration_time=0:00:00.020168 s
flag_key=K
[/PACKET]
[PACKET]
codec_type=video
stream_index=0
pts=162
pts_time=0:00:03.267227 s
dts=162
dts_time=0:00:03.267227 s
size=400.000 byte
file_pkt_nb=234
stream_pkt_nb=163
duration_ts=1
duration_time=0:00:00.020168 s
flag_key=K
[/PACKET]
[PACKET]
codec_type=audio
stream_index=1
pts=71680
pts_time=0:00:03.250794 s
dts=71680
dts_time=0:00:03.250794 s
size=137.000 byte
file_pkt_nb=235
stream_pkt_nb=72
duration_ts=0
duration_time=0:00:00.000000 s
flag_key=K
[/PACKET]
[PACKET]
codec_type=video
stream_index=0
pts=163
pts_time=0:00:03.287395 s
dts=163
dts_time=0:00:03.287395 s
size=3.396 Kibyte
file_pkt_nb=236
stream_pkt_nb=164
duration_ts=1
duration_time=0:00:00.020168 s
flag_key=K
[/PACKET]
[PACKET]
codec_type=video
stream_index=0
pts=164
pts_time=0:00:03.307563 s
dts=164
dts_time=0:00:03.307563 s
size=458.000 byte
file_pkt_nb=237
stream_pkt_nb=165
duration_ts=1
duration_time=0:00:00.020168 s
flag_key=K
[/PACKET]
[PACKET]
codec_type=audio
stream_index=1
pts=72704
pts_time=0:00:03.297234 s
dts=72704
dts_time=0:00:03.297234 s
size=139.000 byte
file_pkt_nb=238
stream_pkt_nb=73
duration_ts=0
duration_time=0:00:00.000000 s
flag_key=K
[/PACKET]
[PACKET]
codec_type=video
stream_index=0
pts=165
pts_time=0:00:03.327731 s
dts=165
dts_time=0:00:03.327731 s
size=495.000 byte
file_pkt_nb=239
stream_pkt_nb=166
duration_ts=1
duration_time=0:00:00.020168 s
flag_key=K
[/PACKET]
[PACKET]
codec_type=video
stream_index=0
pts=166
pts_time=0:00:03.347899 s
dts=166
dts_time=0:00:03.347899 s
size=188.000 byte
file_pkt_nb=240
stream_pkt_nb=167
duration_ts=1
duration_time=0:00:00.020168 s
flag_key=K
[/PACKET]
[PACKET]
codec_type=video
stream_index=0
pts=167
pts_time=0:00:03.368067 s
dts=167
dts_time=0:00:03.368067 s
size=309.000 byte
file_pkt_nb=241
stream_pkt_nb=168
duration_ts=1
duration_time=0:00:00.020168 s
flag_key=K
[/PACKET]
[PACKET]
codec_type=audio
stream_index=1
pts=73728
pts_time=0:00:03.343673 s
dts=73728
dts_time=0:00:03.343673 s
size=135.000 byte
file_pkt_nb=242
stream_pkt_nb=74
duration_ts=0
duration_time=0:00:00.000000 s
flag_key=K
[/PACKET]
[PACKET]
codec_type=video
stream_index=0
pts=168
pts_time=0:00:03.388235 s
dts=168
dts_time=0:00:03.388235 s
size=97.000 byte
file_pkt_nb=243
stream_pkt_nb=169
duration_ts=1
duration_time=0:00:00.020168 s
flag_key=K
[/PACKET]
[PACKET]
codec_type=video
stream_index=0
pts=169
pts_time=0:00:03.408403 s
dts=169
dts_time=0:00:03.408403 s
size=674.000 byte
file_pkt_nb=244
stream_pkt_nb=170
duration_ts=1
duration_time=0:00:00.020168 s
flag_key=K
[/PACKET]
[PACKET]
codec_type=audio
stream_index=1
pts=74752
pts_time=0:00:03.390113 s
dts=74752
dts_time=0:00:03.390113 s
size=145.000 byte
file_pkt_nb=245
stream_pkt_nb=75
duration_ts=0
duration_time=0:00:00.000000 s
flag_key=K
[/PACKET]
[PACKET]
codec_type=video
stream_index=0
pts=170
pts_time=0:00:03.428571 s
dts=170
dts_time=0:00:03.428571 s
size=18.000 byte
file_pkt_nb=246
stream_pkt_nb=171
duration_ts=1
duration_time=0:00:00.020168 s
flag_key=K
[/PACKET]
[PACKET]
codec_type=video
stream_index=0
pts=171
pts_time=0:00:03.448739 s
dts=171
dts_time=0:00:03.448739 s
size=3.215 Kibyte
file_pkt_nb=247
stream_pkt_nb=172
duration_ts=1
duration_time=0:00:00.020168 s
flag_key=K
[/PACKET]
[PACKET]
codec_type=audio
stream_index=1
pts=75776
pts_time=0:00:03.436553 s
dts=75776
dts_time=0:00:03.436553 s
size=131.000 byte
file_pkt_nb=248
stream_pkt_nb=76
duration_ts=0
duration_time=0:00:00.000000 s
flag_key=K
[/PACKET]
[PACKET]
codec_type=video
stream_index=0
pts=172
pts_time=0:00:03.468908 s
dts=172
dts_time=0:00:03.468908 s
size=531.000 byte
file_pkt_nb=249
stream_pkt_nb=173
duration_ts=1
duration_time=0:00:00.020168 s
flag_key=K
[/PACKET]
[PACKET]
codec_type=video
stream_index=0
pts=173
pts_time=0:00:03.489076 s
dts=173
dts_time=0:00:03.489076 s
size=45.000 byte
file_pkt_nb=250
stream_pkt_nb=174
duration_ts=1
duration_time=0:00:00.020168 s
flag_key=K
[/PACKET]
[PACKET]
codec_type=video
stream_index=0
pts=174
pts_time=0:00:03.509244 s
dts=174
dts_time=0:00:03.509244 s
size=715.000 byte
file_pkt_nb=251
stream_pkt_nb=175
duration_ts=1
duration_time=0:00:00.020168 s
flag_key=K
[/PACKET]
[PACKET]
codec_type=audio
stream_index=1
pts=76800
pts_time=0:00:03.482993 s
dts=76800
dts_time=0:00:03.482993 s
size=143.000 byte
file_pkt_nb=252
stream_pkt_nb=77
duration_ts=0
duration_time=0:00:00.000000 s
flag_key=K
[/PACKET]
[PACKET]
codec_type=video
stream_index=0
pts=175
pts_time=0:00:03.529412 s
dts=175
dts_time=0:00:03.529412 s
size=27.000 byte
file_pkt_nb=253
stream_pkt_nb=176
duration_ts=1
duration_time=0:00:00.020168 s
flag_key=K
[/PACKET]
[PACKET]
codec_type=video
stream_index=0
pts=176
pts_time=0:00:03.549580 s
dts=176
dts_time=0:00:03.549580 s
size=178.000 byte
file_pkt_nb=254
stream_pkt_nb=177
duration_ts=1
duration_time=0:00:00.020168 s
flag_key=K
[/PACKET]
[PACKET]
codec_type=audio
stream_index=1
pts=77824
pts_time=0:00:03.529433 s
dts=77824
dts_time=0:00:03.529433 s
size=147.000 byte
file_pkt_nb=255
stream_pkt_nb=78
duration_ts=0
duration_time=0:00:00.000000 s
flag_key=K
[/PACKET]
[PACKET]
codec_type=video
stream_index=0
pts=177
pts_time=0:00:03.569748 s
dts=177
dts_time=0:00:03.569748 s
size=57.000 byte
file_pkt_nb=256
stream_pkt_nb=178
duration_ts=1
duration_time=0:00:00.020168 s
flag_key=K
[/PACKET]
[PACKET]
codec_type=video
stream_index=0
pts=178
pts_time=0:00:03.589916 s
dts=178
dts_time=0:00:03.589916 s
size=1.110 Kibyte
file_pkt_nb=257
stream_pkt_nb=179
duration_ts=1
duration_time=0:00:00.020168 s
flag_key=K
[/PACKET]
[PACKET]
codec_type=audio
stream_index=1
pts=78848
pts_time=0:00:03.575873 s
dts=78848
dts_time=0:00:03.575873 s
size=143.000 byte
file_pkt_nb=258
stream_pkt_nb=79
duration_ts=0
duration_time=0:00:00.000000 s
flag_key=K
[/PACKET]
[PACKET]
codec_type=video
stream_index=0
pts=179
pts_time=0:00:03.610084 s
dts=179
dts_time=0:00:03.610084 s
size=37.000 byte
file_pkt_nb=259
stream_pkt_nb=180
duration_ts=1
duration_time=0:00:00.020168 s
flag_key=K
[/PACKET]
[PACKET]
codec_type=video
stream_index=0
pts=180
pts_time=0:00:03.630252 s
dts=180
dts_time=0:00:03.630252 s
size=279.000 byte
file_pkt_nb=260
stream_pkt_nb=181
duration_ts=1
duration_time=0:00:00.020168 s
flag_key=K
[/PACKET]
[PACKET]
codec_type=audio
stream_index=1
pts=79872
pts_time=0:00:03.622313 s
dts=79872
dts_time=0:00:03.622313 s
size=146.000 byte
file_pkt_nb=261
stream_pkt_nb=80
duration_ts=0
duration_time=0:00:00.000000 s
flag_key=K
[/PACKET]
[PACKET]
codec_type=video
stream_index=0
pts=181
pts_time=0:00:03.650420 s
dts=181
dts_time=0:00:03.650420 s
size=15.000 byte
file_pkt_nb=262
stream_pkt_nb=182
duration_ts=1
duration_time=0:00:00.020168 s
flag_key=K
[/PACKET]
[PACKET]
codec_type=video
stream_index=0
pts=182
pts_time=0:00:03.670588 s
dts=182
dts_time=0:00:03.670588 s
size=4.007 Kibyte
file_pkt_nb=263
stream_pkt_nb=183
duration_ts=1
duration_time=0:00:00.020168 s
flag_key=K
[/PACKET]
[PACKET]
codec_type=video
stream_index=0
pts=183
pts_time=0:00:03.690756 s
dts=183
dts_time=0:00:03.690756 s
size=641.000 byte
file_pkt_nb=264
stream_pkt_nb=184
duration_ts=1
duration_time=0:00:00.020168 s
flag_key=K
[/PACKET]
[PACKET]
codec_type=audio
stream_index=1
pts=80896
pts_time=0:00:03.668753 s
dts=80896
dts_time=0:00:03.668753 s
size=152.000 byte
file_pkt_nb=265
stream_pkt_nb=81
duration_ts=0
duration_time=0:00:00.000000 s
flag_key=K
[/PACKET]
[PACKET]
codec_type=video
stream_index=0
pts=184
pts_time=0:00:03.710924 s
dts=184
dts_time=0:00:03.710924 s
size=15.000 byte
file_pkt_nb=266
stream_pkt_nb=185
duration_ts=1
duration_time=0:00:00.020168 s
flag_key=K
[/PACKET]
[PACKET]
codec_type=video
stream_index=0
pts=185
pts_time=0:00:03.731092 s
dts=185
dts_time=0:00:03.731092 s
size=226.000 byte
file_pkt_nb=267
stream_pkt_nb=186
duration_ts=1
duration_time=0:00:00.020168 s
flag_key=K
[/PACKET]
[PACKET]
codec_type=audio
stream_index=1
pts=81920
pts_time=0:00:03.715193 s
dts=81920
dts_time=0:00:03.715193 s
size=137.000 byte
file_pkt_nb=268
stream_pkt_nb=82
duration_ts=0
duration_time=0:00:00.000000 s
flag_key=K
[/PACKET]
[PACKET]
codec_type=video
stream_index=0
pts=186
pts_time=0:00:03.751261 s
dts=186
dts_time=0:00:03.751261 s
size=374.000 byte
file_pkt_nb=269
stream_pkt_nb=187
duration_ts=1
duration_time=0:00:00.020168 s
flag_key=K
[/PACKET]
[PACKET]
codec_type=video
stream_index=0
pts=187
pts_time=0:00:03.771429 s
dts=187
dts_time=0:00:03.771429 s
size=253.000 byte
file_pkt_nb=270
stream_pkt_nb=188
duration_ts=1
duration_time=0:00:00.020168 s
flag_key=K
[/PACKET]
[PACKET]
codec_type=audio
stream_index=1
pts=82944
pts_time=0:00:03.761633 s
dts=82944
dts_time=0:00:03.761633 s
size=147.000 byte
file_pkt_nb=271
stream_pkt_nb=83
duration_ts=0
duration_time=0:00:00.000000 s
flag_key=K
[/PACKET]
[PACKET]
codec_type=video
stream_index=0
pts=188
pts_time=0:00:03.791597 s
dts=188
dts_time=0:00:03.791597 s
size=97.000 byte
file_pkt_nb=272
stream_pkt_nb=189
duration_ts=1
duration_time=0:00:00.020168 s
flag_key=K
[/PACKET]
[PACKET]
codec_type=video
stream_index=0
pts=189
pts_time=0:00:03.811765 s
dts=189
dts_time=0:00:03.811765 s
size=684.000 byte
file_pkt_nb=273
stream_pkt_nb=190
duration_ts=1
duration_time=0:00:00.020168 s
flag_key=K
[/PACKET]
[PACKET]
codec_type=video
stream_index=0
pts=190
pts_time=0:00:03.831933 s
dts=190
dts_time=0:00:03.831933 s
size=20.000 byte
file_pkt_nb=274
stream_pkt_nb=191
duration_ts=1
duration_time=0:00:00.020168 s
flag_key=K
[/PACKET]
[PACKET]
codec_type=audio
stream_index=1
pts=83968
pts_time=0:00:03.808073 s
dts=83968
dts_time=0:00:03.808073 s
size=153.000 byte
file_pkt_nb=275
stream_pkt_nb=84
duration_ts=0
duration_time=0:00:00.000000 s
flag_key=K
[/PACKET]
[PACKET]
codec_type=video
stream_index=0
pts=191
pts_time=0:00:03.852101 s
dts=191
dts_time=0:00:03.852101 s
size=2.521 Kibyte
file_pkt_nb=276
stream_pkt_nb=192
duration_ts=1
duration_time=0:00:00.020168 s
flag_key=K
[/PACKET]
[PACKET]
codec_type=video
stream_index=0
pts=192
pts_time=0:00:03.872269 s
dts=192
dts_time=0:00:03.872269 s
size=421.000 byte
file_pkt_nb=277
stream_pkt_nb=193
duration_ts=1
duration_time=0:00:00.020168 s
flag_key=K
[/PACKET]
[PACKET]
codec_type=audio
stream_index=1
pts=84992
pts_time=0:00:03.854512 s
dts=84992
dts_time=0:00:03.854512 s
size=154.000 byte
file_pkt_nb=278
stream_pkt_nb=85
duration_ts=0
duration_time=0:00:00.000000 s
flag_key=K
[/PACKET]
[PACKET]
codec_type=video
stream_index=0
pts=193
pts_time=0:00:03.892437 s
dts=193
dts_time=0:00:03.892437 s
size=99.000 byte
file_pkt_nb=279
stream_pkt_nb=194
duration_ts=1
duration_time=0:00:00.020168 s
flag_key=K
[/PACKET]
[PACKET]
codec_type=video
stream_index=0
pts=194
pts_time=0:00:03.912605 s
dts=194
dts_time=0:00:03.912605 s
size=266.000 byte
file_pkt_nb=280
stream_pkt_nb=195
duration_ts=1
duration_time=0:00:00.020168 s
flag_key=K
[/PACKET]
[PACKET]
codec_type=audio
stream_index=1
pts=86016
pts_time=0:00:03.900952 s
dts=86016
dts_time=0:00:03.900952 s
size=153.000 byte
file_pkt_nb=281
stream_pkt_nb=86
duration_ts=0
duration_time=0:00:00.000000 s
flag_key=K
[/PACKET]
[PACKET]
codec_type=video
stream_index=0
pts=195
pts_time=0:00:03.932773 s
dts=195
dts_time=0:00:03.932773 s
size=45.000 byte
file_pkt_nb=282
stream_pkt_nb=196
duration_ts=1
duration_time=0:00:00.020168 s
flag_key=K
[/PACKET]
[PACKET]
codec_type=video
stream_index=0
pts=196
pts_time=0:00:03.952941 s
dts=196
dts_time=0:00:03.952941 s
size=710.000 byte
file_pkt_nb=283
stream_pkt_nb=197
duration_ts=1
duration_time=0:00:00.020168 s
flag_key=K
[/PACKET]
[PACKET]
codec_type=video
stream_index=0
pts=197
pts_time=0:00:03.973109 s
dts=197
dts_time=0:00:03.973109 s
size=24.000 byte
file_pkt_nb=284
stream_pkt_nb=198
duration_ts=1
duration_time=0:00:00.020168 s
flag_key=K
[/PACKET]
[PACKET]
codec_type=audio
stream_index=1
pts=87040
pts_time=0:00:03.947392 s
dts=87040
dts_time=0:00:03.947392 s
size=157.000 byte
file_pkt_nb=285
stream_pkt_nb=87
duration_ts=0
duration_time=0:00:00.000000 s
flag_key=K
[/PACKET]
[PACKET]
codec_type=video
stream_index=0
pts=198
pts_time=0:00:03.993277 s
dts=198
dts_time=0:00:03.993277 s
size=918.000 byte
file_pkt_nb=286
stream_pkt_nb=199
duration_ts=1
duration_time=0:00:00.020168 s
flag_key=K
[/PACKET]
[PACKET]
codec_type=video
stream_index=0
pts=199
pts_time=0:00:04.013445 s
dts=199
dts_time=0:00:04.013445 s
size=24.000 byte
file_pkt_nb=287
stream_pkt_nb=200
duration_ts=1
duration_time=0:00:00.020168 s
flag_key=K
[/PACKET]
[PACKET]
codec_type=audio
stream_index=1
pts=88064
pts_time=0:00:03.993832 s
dts=88064
dts_time=0:00:03.993832 s
size=165.000 byte
file_pkt_nb=288
stream_pkt_nb=88
duration_ts=0
duration_time=0:00:00.000000 s
flag_key=K
[/PACKET]
[PACKET]
codec_type=video
stream_index=0
pts=200
pts_time=0:00:04.033613 s
dts=200
dts_time=0:00:04.033613 s
size=198.000 byte
file_pkt_nb=289
stream_pkt_nb=201
duration_ts=1
duration_time=0:00:00.020168 s
flag_key=K
[/PACKET]
[PACKET]
codec_type=video
stream_index=0
pts=201
pts_time=0:00:04.053782 s
dts=201
dts_time=0:00:04.053782 s
size=32.000 byte
file_pkt_nb=290
stream_pkt_nb=202
duration_ts=1
duration_time=0:00:00.020168 s
flag_key=K
[/PACKET]
[PACKET]
codec_type=audio
stream_index=1
pts=89088
pts_time=0:00:04.040272 s
dts=89088
dts_time=0:00:04.040272 s
size=164.000 byte
file_pkt_nb=291
stream_pkt_nb=89
duration_ts=0
duration_time=0:00:00.000000 s
flag_key=K
[/PACKET]
[PACKET]
codec_type=video
stream_index=0
pts=202
pts_time=0:00:04.073950 s
dts=202
dts_time=0:00:04.073950 s
size=4.324 Kibyte
file_pkt_nb=292
stream_pkt_nb=203
duration_ts=1
duration_time=0:00:00.020168 s
flag_key=K
[/PACKET]
[PACKET]
codec_type=video
stream_index=0
pts=203
pts_time=0:00:04.094118 s
dts=203
dts_time=0:00:04.094118 s
size=249.000 byte
file_pkt_nb=293
stream_pkt_nb=204
duration_ts=1
duration_time=0:00:00.020168 s
flag_key=K
[/PACKET]
[PACKET]
codec_type=audio
stream_index=1
pts=90112
pts_time=0:00:04.086712 s
dts=90112
dts_time=0:00:04.086712 s
size=162.000 byte
file_pkt_nb=294
stream_pkt_nb=90
duration_ts=0
duration_time=0:00:00.000000 s
flag_key=K
[/PACKET]
[PACKET]
codec_type=video
stream_index=0
pts=204
pts_time=0:00:04.114286 s
dts=204
dts_time=0:00:04.114286 s
size=20.000 byte
file_pkt_nb=295
stream_pkt_nb=205
duration_ts=1
duration_time=0:00:00.020168 s
flag_key=K
[/PACKET]
[PACKET]
codec_type=video
stream_index=0
pts=205
pts_time=0:00:04.134454 s
dts=205
dts_time=0:00:04.134454 s
size=721.000 byte
file_pkt_nb=296
stream_pkt_nb=206
duration_ts=1
duration_time=0:00:00.020168 s
flag_key=K
[/PACKET]
[PACKET]
codec_type=video
stream_index=0
pts=206
pts_time=0:00:04.154622 s
dts=206
dts_time=0:00:04.154622 s
size=32.000 byte
file_pkt_nb=297
stream_pkt_nb=207
duration_ts=1
duration_time=0:00:00.020168 s
flag_key=K
[/PACKET]
[PACKET]
codec_type=audio
stream_index=1
pts=91136
pts_time=0:00:04.133152 s
dts=91136
dts_time=0:00:04.133152 s
size=159.000 byte
file_pkt_nb=298
stream_pkt_nb=91
duration_ts=0
duration_time=0:00:00.000000 s
flag_key=K
[/PACKET]
[PACKET]
codec_type=video
stream_index=0
pts=207
pts_time=0:00:04.174790 s
dts=207
dts_time=0:00:04.174790 s
size=522.000 byte
file_pkt_nb=299
stream_pkt_nb=208
duration_ts=1
duration_time=0:00:00.020168 s
flag_key=K
[/PACKET]
[PACKET]
codec_type=video
stream_index=0
pts=208
pts_time=0:00:04.194958 s
dts=208
dts_time=0:00:04.194958 s
size=17.000 byte
file_pkt_nb=300
stream_pkt_nb=209
duration_ts=1
duration_time=0:00:00.020168 s
flag_key=K
[/PACKET]
[PACKET]
codec_type=audio
stream_index=1
pts=92160
pts_time=0:00:04.179592 s
dts=92160
dts_time=0:00:04.179592 s
size=158.000 byte
file_pkt_nb=301
stream_pkt_nb=92
duration_ts=0
duration_time=0:00:00.000000 s
flag_key=K
[/PACKET]
[PACKET]
codec_type=video
stream_index=0
pts=209
pts_time=0:00:04.215126 s
dts=209
dts_time=0:00:04.215126 s
size=120.000 byte
file_pkt_nb=302
stream_pkt_nb=210
duration_ts=1
duration_time=0:00:00.020168 s
flag_key=K
[/PACKET]
[PACKET]
codec_type=video
stream_index=0
pts=210
pts_time=0:00:04.235294 s
dts=210
dts_time=0:00:04.235294 s
size=59.000 byte
file_pkt_nb=303
stream_pkt_nb=211
duration_ts=1
duration_time=0:00:00.020168 s
flag_key=K
[/PACKET]
[PACKET]
codec_type=audio
stream_index=1
pts=93184
pts_time=0:00:04.226032 s
dts=93184
dts_time=0:00:04.226032 s
size=160.000 byte
file_pkt_nb=304
stream_pkt_nb=93
duration_ts=0
duration_time=0:00:00.000000 s
flag_key=K
[/PACKET]
[PACKET]
codec_type=video
stream_index=0
pts=211
pts_time=0:00:04.255462 s
dts=211
dts_time=0:00:04.255462 s
size=627.000 byte
file_pkt_nb=305
stream_pkt_nb=212
duration_ts=1
duration_time=0:00:00.020168 s
flag_key=K
[/PACKET]
[PACKET]
codec_type=video
stream_index=0
pts=212
pts_time=0:00:04.275630 s
dts=212
dts_time=0:00:04.275630 s
size=18.000 byte
file_pkt_nb=306
stream_pkt_nb=213
duration_ts=1
duration_time=0:00:00.020168 s
flag_key=K
[/PACKET]
[PACKET]
codec_type=video
stream_index=0
pts=213
pts_time=0:00:04.295798 s
dts=213
dts_time=0:00:04.295798 s
size=3.271 Kibyte
file_pkt_nb=307
stream_pkt_nb=214
duration_ts=1
duration_time=0:00:00.020168 s
flag_key=K
[/PACKET]
[PACKET]
codec_type=audio
stream_index=1
pts=94208
pts_time=0:00:04.272472 s
dts=94208
dts_time=0:00:04.272472 s
size=178.000 byte
file_pkt_nb=308
stream_pkt_nb=94
duration_ts=0
duration_time=0:00:00.000000 s
flag_key=K
[/PACKET]
[PACKET]
codec_type=video
stream_index=0
pts=214
pts_time=0:00:04.315966 s
dts=214
dts_time=0:00:04.315966 s
size=1.045 Kibyte
file_pkt_nb=309
stream_pkt_nb=215
duration_ts=1
duration_time=0:00:00.020168 s
flag_key=K
[/PACKET]
[PACKET]
codec_type=video
stream_index=0
pts=215
pts_time=0:00:04.336134 s
dts=215
dts_time=0:00:04.336134 s
size=33.000 byte
file_pkt_nb=310
stream_pkt_nb=216
duration_ts=1
duration_time=0:00:00.020168 s
flag_key=K
[/PACKET]
[PACKET]
codec_type=audio
stream_index=1
pts=95232
pts_time=0:00:04.318912 s
dts=95232
dts_time=0:00:04.318912 s
size=151.000 byte
file_pkt_nb=311
stream_pkt_nb=95
duration_ts=0
duration_time=0:00:00.000000 s
flag_key=K
[/PACKET]
[PACKET]
codec_type=video
stream_index=0
pts=216
pts_time=0:00:04.356303 s
dts=216
dts_time=0:00:04.356303 s
size=422.000 byte
file_pkt_nb=312
stream_pkt_nb=217
duration_ts=1
duration_time=0:00:00.020168 s
flag_key=K
[/PACKET]
[PACKET]
codec_type=video
stream_index=0
pts=217
pts_time=0:00:04.376471 s
dts=217
dts_time=0:00:04.376471 s
size=53.000 byte
file_pkt_nb=313
stream_pkt_nb=218
duration_ts=1
duration_time=0:00:00.020168 s
flag_key=K
[/PACKET]
[PACKET]
codec_type=audio
stream_index=1
pts=96256
pts_time=0:00:04.365351 s
dts=96256
dts_time=0:00:04.365351 s
size=163.000 byte
file_pkt_nb=314
stream_pkt_nb=96
duration_ts=0
duration_time=0:00:00.000000 s
flag_key=K
[/PACKET]
[PACKET]
codec_type=video
stream_index=0
pts=218
pts_time=0:00:04.396639 s
dts=218
dts_time=0:00:04.396639 s
size=165.000 byte
file_pkt_nb=315
stream_pkt_nb=219
duration_ts=1
duration_time=0:00:00.020168 s
flag_key=K
[/PACKET]
[PACKET]
codec_type=video
stream_index=0
pts=219
pts_time=0:00:04.416807 s
dts=219
dts_time=0:00:04.416807 s
size=70.000 byte
file_pkt_nb=316
stream_pkt_nb=220
duration_ts=1
duration_time=0:00:00.020168 s
flag_key=K
[/PACKET]
[PACKET]
codec_type=video
stream_index=0
pts=220
pts_time=0:00:04.436975 s
dts=220
dts_time=0:00:04.436975 s
size=387.000 byte
file_pkt_nb=317
stream_pkt_nb=221
duration_ts=1
duration_time=0:00:00.020168 s
flag_key=K
[/PACKET]
[PACKET]
codec_type=audio
stream_index=1
pts=97280
pts_time=0:00:04.411791 s
dts=97280
dts_time=0:00:04.411791 s
size=160.000 byte
file_pkt_nb=318
stream_pkt_nb=97
duration_ts=0
duration_time=0:00:00.000000 s
flag_key=K
[/PACKET]
[PACKET]
codec_type=video
stream_index=0
pts=221
pts_time=0:00:04.457143 s
dts=221
dts_time=0:00:04.457143 s
size=96.000 byte
file_pkt_nb=319
stream_pkt_nb=222
duration_ts=1
duration_time=0:00:00.020168 s
flag_key=K
[/PACKET]
[PACKET]
codec_type=video
stream_index=0
pts=222
pts_time=0:00:04.477311 s
dts=222
dts_time=0:00:04.477311 s
size=2.651 Kibyte
file_pkt_nb=320
stream_pkt_nb=223
duration_ts=1
duration_time=0:00:00.020168 s
flag_key=K
[/PACKET]
[PACKET]
codec_type=audio
stream_index=1
pts=98304
pts_time=0:00:04.458231 s
dts=98304
dts_time=0:00:04.458231 s
size=150.000 byte
file_pkt_nb=321
stream_pkt_nb=98
duration_ts=0
duration_time=0:00:00.000000 s
flag_key=K
[/PACKET]
[PACKET]
codec_type=video
stream_index=0
pts=223
pts_time=0:00:04.497479 s
dts=223
dts_time=0:00:04.497479 s
size=302.000 byte
file_pkt_nb=322
stream_pkt_nb=224
duration_ts=1
duration_time=0:00:00.020168 s
flag_key=K
[/PACKET]
[PACKET]
codec_type=video
stream_index=0
pts=224
pts_time=0:00:04.517647 s
dts=224
dts_time=0:00:04.517647 s
size=267.000 byte
file_pkt_nb=323
stream_pkt_nb=225
duration_ts=1
duration_time=0:00:00.020168 s
flag_key=K
[/PACKET]
[PACKET]
codec_type=audio
stream_index=1
pts=99328
pts_time=0:00:04.504671 s
dts=99328
dts_time=0:00:04.504671 s
size=155.000 byte
file_pkt_nb=324
stream_pkt_nb=99
duration_ts=0
duration_time=0:00:00.000000 s
flag_key=K
[/PACKET]
[PACKET]
codec_type=video
stream_index=0
pts=225
pts_time=0:00:04.537815 s
dts=225
dts_time=0:00:04.537815 s
size=119.000 byte
file_pkt_nb=325
stream_pkt_nb=226
duration_ts=1
duration_time=0:00:00.020168 s
flag_key=K
[/PACKET]
[PACKET]
codec_type=video
stream_index=0
pts=226
pts_time=0:00:04.557983 s
dts=226
dts_time=0:00:04.557983 s
size=797.000 byte
file_pkt_nb=326
stream_pkt_nb=227
duration_ts=1
duration_time=0:00:00.020168 s
flag_key=K
[/PACKET]
[PACKET]
codec_type=audio
stream_index=1
pts=100352
pts_time=0:00:04.551111 s
dts=100352
dts_time=0:00:04.551111 s
size=142.000 byte
file_pkt_nb=327
stream_pkt_nb=100
duration_ts=0
duration_time=0:00:00.000000 s
flag_key=K
[/PACKET]
[PACKET]
codec_type=video
stream_index=0
pts=227
pts_time=0:00:04.578151 s
dts=227
dts_time=0:00:04.578151 s
size=27.000 byte
file_pkt_nb=328
stream_pkt_nb=228
duration_ts=1
duration_time=0:00:00.020168 s
flag_key=K
[/PACKET]
[PACKET]
codec_type=video
stream_index=0
pts=228
pts_time=0:00:04.598319 s
dts=228
dts_time=0:00:04.598319 s
size=693.000 byte
file_pkt_nb=329
stream_pkt_nb=229
duration_ts=1
duration_time=0:00:00.020168 s
flag_key=K
[/PACKET]
[PACKET]
codec_type=video
stream_index=0
pts=229
pts_time=0:00:04.618487 s
dts=229
dts_time=0:00:04.618487 s
size=20.000 byte
file_pkt_nb=330
stream_pkt_nb=230
duration_ts=1
duration_time=0:00:00.020168 s
flag_key=K
[/PACKET]
[PACKET]
codec_type=audio
stream_index=1
pts=101376
pts_time=0:00:04.597551 s
dts=101376
dts_time=0:00:04.597551 s
size=158.000 byte
file_pkt_nb=331
stream_pkt_nb=101
duration_ts=0
duration_time=0:00:00.000000 s
flag_key=K
[/PACKET]
[PACKET]
codec_type=video
stream_index=0
pts=230
pts_time=0:00:04.638655 s
dts=230
dts_time=0:00:04.638655 s
size=243.000 byte
file_pkt_nb=332
stream_pkt_nb=231
duration_ts=1
duration_time=0:00:00.020168 s
flag_key=K
[/PACKET]
[PACKET]
codec_type=video
stream_index=0
pts=231
pts_time=0:00:04.658824 s
dts=231
dts_time=0:00:04.658824 s
size=71.000 byte
file_pkt_nb=333
stream_pkt_nb=232
duration_ts=1
duration_time=0:00:00.020168 s
flag_key=K
[/PACKET]
[PACKET]
codec_type=audio
stream_index=1
pts=102400
pts_time=0:00:04.643991 s
dts=102400
dts_time=0:00:04.643991 s
size=154.000 byte
file_pkt_nb=334
stream_pkt_nb=102
duration_ts=0
duration_time=0:00:00.000000 s
flag_key=K
[/PACKET]
[PACKET]
codec_type=video
stream_index=0
pts=232
pts_time=0:00:04.678992 s
dts=232
dts_time=0:00:04.678992 s
size=4.573 Kibyte
file_pkt_nb=335
stream_pkt_nb=233
duration_ts=1
duration_time=0:00:00.020168 s
flag_key=K
[/PACKET]
[PACKET]
codec_type=audio
stream_index=1
pts=103424
pts_time=0:00:04.690431 s
dts=103424
dts_time=0:00:04.690431 s
size=151.000 byte
file_pkt_nb=336
stream_pkt_nb=103
duration_ts=0
duration_time=0:00:00.000000 s
flag_key=K
[/PACKET]
[PACKET]
codec_type=audio
stream_index=1
pts=104448
pts_time=0:00:04.736871 s
dts=104448
dts_time=0:00:04.736871 s
size=164.000 byte
file_pkt_nb=337
stream_pkt_nb=104
duration_ts=0
duration_time=0:00:00.000000 s
flag_key=K
[/PACKET]
[PACKET]
codec_type=audio
stream_index=1
pts=105472
pts_time=0:00:04.783311 s
dts=105472
dts_time=0:00:04.783311 s
size=164.000 byte
file_pkt_nb=338
stream_pkt_nb=105
duration_ts=0
duration_time=0:00:00.000000 s
flag_key=K
[/PACKET]
[PACKET]
codec_type=audio
stream_index=1
pts=106496
pts_time=0:00:04.829751 s
dts=106496
dts_time=0:00:04.829751 s
size=161.000 byte
file_pkt_nb=339
stream_pkt_nb=106
duration_ts=0
duration_time=0:00:00.000000 s
flag_key=K
[/PACKET]
[PACKET]
codec_type=audio
stream_index=1
pts=107520
pts_time=0:00:04.876190 s
dts=107520
dts_time=0:00:04.876190 s
size=166.000 byte
file_pkt_nb=340
stream_pkt_nb=107
duration_ts=0
duration_time=0:00:00.000000 s
flag_key=K
[/PACKET]
[PACKET]
codec_type=audio
stream_index=1
pts=108544
pts_time=0:00:04.922630 s
dts=108544
dts_time=0:00:04.922630 s
size=172.000 byte
file_pkt_nb=341
stream_pkt_nb=108
duration_ts=0
duration_time=0:00:00.000000 s
flag_key=K
[/PACKET]
[PACKET]
codec_type=audio
stream_index=1
pts=109568
pts_time=0:00:04.969070 s
dts=109568
dts_time=0:00:04.969070 s
size=159.000 byte
file_pkt_nb=342
stream_pkt_nb=109
duration_ts=0
duration_time=0:00:00.000000 s
flag_key=K
[/PACKET]
[PACKET]
codec_type=audio
stream_index=1
pts=110592
pts_time=0:00:05.015510 s
dts=110592
dts_time=0:00:05.015510 s
size=159.000 byte
file_pkt_nb=343
stream_pkt_nb=110
duration_ts=0
duration_time=0:00:00.000000 s
flag_key=K
[/PACKET]
[PACKET]
codec_type=audio
stream_index=1
pts=111616
pts_time=0:00:05.061950 s
dts=111616
dts_time=0:00:05.061950 s
size=163.000 byte
file_pkt_nb=344
stream_pkt_nb=111
duration_ts=0
duration_time=0:00:00.000000 s
flag_key=K
[/PACKET]
[PACKET]
codec_type=audio
stream_index=1
pts=112640
pts_time=0:00:05.108390 s
dts=112640
dts_time=0:00:05.108390 s
size=155.000 byte
file_pkt_nb=345
stream_pkt_nb=112
duration_ts=0
duration_time=0:00:00.000000 s
flag_key=K
[/PACKET]
[PACKET]
codec_type=audio
stream_index=1
pts=113664
pts_time=0:00:05.154830 s
dts=113664
dts_time=0:00:05.154830 s
size=146.000 byte
file_pkt_nb=346
stream_pkt_nb=113
duration_ts=0
duration_time=0:00:00.000000 s
flag_key=K
[/PACKET]
[PACKET]
codec_type=audio
stream_index=1
pts=114688
pts_time=0:00:05.201270 s
dts=114688
dts_time=0:00:05.201270 s
size=132.000 byte
file_pkt_nb=347
stream_pkt_nb=114
duration_ts=0
duration_time=0:00:00.000000 s
flag_key=K
[/PACKET]
[PACKET]
codec_type=audio
stream_index=1
pts=115712
pts_time=0:00:05.247710 s
dts=115712
dts_time=0:00:05.247710 s
size=128.000 byte
file_pkt_nb=348
stream_pkt_nb=115
duration_ts=0
duration_time=0:00:00.000000 s
flag_key=K
[/PACKET]
[PACKET]
codec_type=audio
stream_index=1
pts=116736
pts_time=0:00:05.294150 s
dts=116736
dts_time=0:00:05.294150 s
size=124.000 byte
file_pkt_nb=349
stream_pkt_nb=116
duration_ts=0
duration_time=0:00:00.000000 s
flag_key=K
[/PACKET]
[PACKET]
codec_type=audio
stream_index=1
pts=117760
pts_time=0:00:05.340590 s
dts=117760
dts_time=0:00:05.340590 s
size=107.000 byte
file_pkt_nb=350
stream_pkt_nb=117
duration_ts=0
duration_time=0:00:00.000000 s
flag_key=K
[/PACKET]
[PACKET]
codec_type=audio
stream_index=1
pts=118784
pts_time=0:00:05.387029 s
dts=118784
dts_time=0:00:05.387029 s
size=61.000 byte
file_pkt_nb=351
stream_pkt_nb=118
duration_ts=0
duration_time=0:00:00.000000 s
flag_key=K
[/PACKET]
[PACKET]
codec_type=audio
stream_index=1
pts=119808
pts_time=0:00:05.433469 s
dts=119808
dts_time=0:00:05.433469 s
size=30.000 byte
file_pkt_nb=352
stream_pkt_nb=119
duration_ts=0
duration_time=0:00:00.000000 s
flag_key=K
[/PACKET]
[PACKET]
codec_type=audio
stream_index=1
pts=120832
pts_time=0:00:05.479909 s
dts=120832
dts_time=0:00:05.479909 s
size=30.000 byte
file_pkt_nb=353
stream_pkt_nb=120
duration_ts=0
duration_time=0:00:00.000000 s
flag_key=K
[/PACKET]
[PACKET]
codec_type=audio
stream_index=1
pts=121856
pts_time=0:00:05.526349 s
dts=121856
dts_time=0:00:05.526349 s
size=30.000 byte
file_pkt_nb=354
stream_pkt_nb=121
duration_ts=0
duration_time=0:00:00.000000 s
flag_key=K
[/PACKET]
[PACKET]
codec_type=audio
stream_index=1
pts=122880
pts_time=0:00:05.572789 s
dts=122880
dts_time=0:00:05.572789 s
size=30.000 byte
file_pkt_nb=355
stream_pkt_nb=122
duration_ts=0
duration_time=0:00:00.000000 s
flag_key=K
[/PACKET]
[PACKET]
codec_type=audio
stream_index=1
pts=123904
pts_time=0:00:05.619229 s
dts=123904
dts_time=0:00:05.619229 s
size=30.000 byte
file_pkt_nb=356
stream_pkt_nb=123
duration_ts=0
duration_time=0:00:00.000000 s
flag_key=K
[/PACKET]
